<svg width="824" height="391" viewBox="0 0 824 391" fill="none" xmlns="http://www.w3.org/2000/svg">
<path d="M582.238 306.137C598.208 302.88 598.341 242.331 598.46 188.913C598.533 154.818 598.606 122.62 603.106 113.956C611.503 97.6583 628.176 97.864 628.329 97.864L628.362 96.7363C628.189 96.7363 610.819 96.4909 602.084 113.432C597.484 122.368 597.438 153.232 597.332 188.933C597.226 239.3 597.086 301.978 582.012 305.056L582.238 306.137Z" fill="#61656D"/>
<path d="M580.997 297.799C590.887 297.799 597.252 284.128 600.471 256.009C603.239 231.851 603.345 200.535 603.432 172.907C603.531 142.718 603.617 116.643 607.009 107.164C613.142 89.9968 627.798 91.9669 628.415 92.0597L628.581 90.9387C628.422 90.9387 612.392 88.7232 605.941 106.779C602.489 116.444 602.403 142.599 602.303 172.907C602.117 228.05 601.892 296.672 580.997 296.672V297.799Z" fill="#61656D"/>
<path d="M582.709 311.928C601.195 308.332 600.942 239.399 600.737 184.017C600.624 153.636 600.524 127.402 603.591 119.674C610.335 102.672 628.581 104.258 628.767 104.278L628.873 103.15C628.687 103.15 609.591 101.465 602.535 119.256C599.389 127.216 599.489 153.53 599.602 184.024C599.794 236.095 600.06 307.404 582.497 310.826L582.709 311.928Z" fill="#61656D"/>
<path d="M582.709 309.036C601.221 305.474 600.942 236.487 600.737 181.119C600.624 150.745 600.524 124.503 603.591 116.776C610.335 99.7677 628.581 101.36 628.767 101.38L628.873 100.252C628.687 100.252 609.591 98.5671 602.535 116.358C599.389 124.318 599.489 150.632 599.602 181.126C599.794 233.197 600.06 304.506 582.497 307.928L582.709 309.036Z" fill="#61656D"/>
<path d="M582.238 368.988C598.214 365.731 598.347 314.595 598.46 269.488C598.54 240.302 598.606 212.78 603.106 204.09C611.516 187.772 628.183 188.004 628.329 188.004L628.362 186.87C628.189 186.87 610.819 186.631 602.084 203.573C597.484 212.508 597.438 238.909 597.332 269.488C597.219 314.157 597.086 364.795 582.012 367.867L582.238 368.988Z" fill="#61656D"/>
<path d="M580.997 360.643C603.027 360.643 603.246 304.678 603.432 255.306C603.538 229.277 603.624 206.803 607.009 197.324C613.142 180.164 627.798 182.134 628.415 182.227L628.581 181.106C628.422 181.106 612.392 178.883 605.941 196.946C602.489 206.604 602.403 229.171 602.303 255.319C602.124 301.753 601.898 359.528 580.997 359.528V360.643Z" fill="#61656D"/>
<path d="M580.997 364.258C603.027 364.258 603.246 308.293 603.432 258.921C603.538 232.892 603.624 210.418 607.009 200.939C613.142 183.779 627.798 185.749 628.415 185.842L628.581 184.721C628.422 184.721 612.392 182.499 605.941 200.561C602.489 210.219 602.403 232.786 602.303 258.935C602.124 305.368 601.898 363.15 580.997 363.15V364.258Z" fill="#61656D"/>
<path d="M580.997 370.168C603.027 370.168 603.246 314.203 603.432 264.825C603.538 238.802 603.624 216.329 607.009 206.85C613.142 189.683 627.798 191.659 628.415 191.746L628.581 190.631C628.422 190.631 612.392 188.409 605.941 206.465C602.489 216.13 602.403 238.696 602.303 264.838C602.124 311.272 601.898 369.047 580.997 369.047V370.168Z" fill="#61656D"/>
<path d="M582.709 374.778C601.188 371.183 600.936 312.982 600.737 266.217C600.624 240.115 600.524 217.575 603.591 209.834C610.335 192.826 628.581 194.418 628.767 194.438L628.873 193.31C628.681 193.31 609.591 191.625 602.535 209.416C599.389 217.376 599.489 239.996 599.602 266.217C599.801 312.564 600.053 370.241 582.497 373.677L582.709 374.778Z" fill="#61656D"/>
<path d="M791.83 0.0548096H747.213V343.867H791.83V0.0548096Z" fill="#4D61FC"/>
<path opacity="0.15" d="M791.83 0.0548096H747.213V343.867H791.83V0.0548096Z" fill="black"/>
<path d="M747.518 0.0805664H622.999V343.887H747.518V0.0805664Z" fill="#4D61FC"/>
<path opacity="0.3" d="M747.518 0.0805664H622.999V343.887H747.518V0.0805664Z" fill="white"/>
<path d="M739.075 49.7179H631.448V322.142H739.075V49.7179Z" fill="#4D61FC"/>
<path opacity="0.2" d="M739.075 49.7179H631.448V322.142H739.075V49.7179Z" fill="black"/>
<path d="M735.611 92.225H634.907V125.364H735.611V92.225Z" fill="#4D61FC"/>
<path d="M735.611 130.798H634.907V163.938H735.611V130.798Z" fill="#4D61FC"/>
<path d="M735.611 169.365H634.907V202.505H735.611V169.365Z" fill="#4D61FC"/>
<path d="M735.611 207.929H634.907V241.07H735.611V207.929Z" fill="#4D61FC"/>
<path d="M735.611 246.496H634.907V279.636H735.611V246.496Z" fill="#4D61FC"/>
<path d="M735.611 285.062H634.907V318.203H735.611V285.062Z" fill="#4D61FC"/>
<path d="M735.611 53.6594H634.907V86.7996H735.611V53.6594Z" fill="#4D61FC"/>
<g opacity="0.3">
<path opacity="0.3" d="M735.611 92.2256H634.907V125.366H735.611V92.2256Z" fill="white"/>
<path opacity="0.3" d="M735.611 130.798H634.907V163.938H735.611V130.798Z" fill="white"/>
<path opacity="0.3" d="M735.611 169.365H634.907V202.505H735.611V169.365Z" fill="white"/>
<path opacity="0.3" d="M735.611 207.931H634.907V241.071H735.611V207.931Z" fill="white"/>
<path opacity="0.3" d="M735.611 246.498H634.907V279.638H735.611V246.498Z" fill="white"/>
<path opacity="0.3" d="M735.611 285.063H634.907V318.203H735.611V285.063Z" fill="white"/>
<path opacity="0.3" d="M735.611 53.6594H634.907V86.7996H735.611V53.6594Z" fill="white"/>
</g>
<path d="M726.066 62.2622H643.057V78.7328H726.066V62.2622Z" fill="#4D61FC"/>
<path opacity="0.2" d="M726.066 62.2622H643.057V78.7328H726.066V62.2622Z" fill="black"/>
<path d="M705.948 66.7728H646.423V74.3281H705.948V66.7728Z" fill="#4D61FC"/>
<path opacity="0.2" d="M710.063 72.5577C711.118 72.5577 711.975 71.6576 711.975 70.5479C711.975 69.4375 711.118 68.538 710.063 68.538C709.008 68.538 708.151 69.4375 708.151 70.5479C708.151 71.6576 709.008 72.5577 710.063 72.5577Z" fill="black"/>
<path d="M715.579 72.5577C716.634 72.5577 717.49 71.6576 717.49 70.5479C717.49 69.4375 716.634 68.538 715.579 68.538C714.523 68.538 713.667 69.4375 713.667 70.5479C713.667 71.6576 714.523 72.5577 715.579 72.5577Z" fill="#4D61FC"/>
<path d="M721.101 72.5577C722.157 72.5577 723.013 71.6576 723.013 70.5479C723.013 69.4375 722.157 68.538 721.101 68.538C720.046 68.538 719.19 69.4375 719.19 70.5479C719.19 71.6576 720.046 72.5577 721.101 72.5577Z" fill="#B2B6BB"/>
<path d="M726.066 101.266H643.057V117.737H726.066V101.266Z" fill="#4D61FC"/>
<path opacity="0.2" d="M726.066 101.266H643.057V117.737H726.066V101.266Z" fill="black"/>
<path d="M705.948 105.77H646.423V113.325H705.948V105.77Z" fill="#4D61FC"/>
<path d="M726.066 140.263H643.057V156.733H726.066V140.263Z" fill="#4D61FC"/>
<path opacity="0.2" d="M726.066 140.263H643.057V156.733H726.066V140.263Z" fill="black"/>
<path d="M705.948 144.768H646.423V152.323H705.948V144.768Z" fill="#4D61FC"/>
<path d="M726.066 179.261H643.057V195.731H726.066V179.261Z" fill="#4D61FC"/>
<path opacity="0.2" d="M726.066 179.261H643.057V195.731H726.066V179.261Z" fill="black"/>
<path d="M705.948 183.771H646.423V191.326H705.948V183.771Z" fill="#4D61FC"/>
<path d="M726.066 217.237H643.057V233.707H726.066V217.237Z" fill="#4D61FC"/>
<path opacity="0.2" d="M726.066 217.237H643.057V233.707H726.066V217.237Z" fill="black"/>
<path d="M705.948 221.747H646.423V229.302H705.948V221.747Z" fill="#4D61FC"/>
<path opacity="0.2" d="M710.063 227.684C711.118 227.684 711.975 226.784 711.975 225.674C711.975 224.565 711.118 223.664 710.063 223.664C709.008 223.664 708.151 224.565 708.151 225.674C708.151 226.784 709.008 227.684 710.063 227.684Z" fill="black"/>
<path d="M715.579 227.684C716.634 227.684 717.49 226.784 717.49 225.674C717.49 224.565 716.634 223.664 715.579 223.664C714.523 223.664 713.667 224.565 713.667 225.674C713.667 226.784 714.523 227.684 715.579 227.684Z" fill="#4D61FC"/>
<path d="M721.101 227.684C722.157 227.684 723.013 226.784 723.013 225.674C723.013 224.565 722.157 223.664 721.101 223.664C720.046 223.664 719.19 224.565 719.19 225.674C719.19 226.784 720.046 227.684 721.101 227.684Z" fill="#B2B6BB"/>
<path d="M726.066 256.387H643.057V272.857H726.066V256.387Z" fill="#4D61FC"/>
<path opacity="0.2" d="M726.066 256.387H643.057V272.857H726.066V256.387Z" fill="black"/>
<path d="M705.948 260.89H646.423V268.446H705.948V260.89Z" fill="#4D61FC"/>
<path d="M726.066 294.654H643.057V311.124H726.066V294.654Z" fill="#4D61FC"/>
<path opacity="0.2" d="M726.066 294.654H643.057V311.124H726.066V294.654Z" fill="black"/>
<path d="M705.948 299.158H646.423V306.714H705.948V299.158Z" fill="#4D61FC"/>
<path opacity="0.3" d="M705.948 66.7728H646.423V74.3281H705.948V66.7728Z" fill="white"/>
<g opacity="0.3">
<path opacity="0.3" d="M705.948 105.77H646.423V113.325H705.948V105.77Z" fill="white"/>
</g>
<g opacity="0.3">
<path opacity="0.3" d="M705.948 144.768H646.423V152.323H705.948V144.768Z" fill="white"/>
</g>
<g opacity="0.3">
<path opacity="0.3" d="M705.948 183.771H646.423V191.326H705.948V183.771Z" fill="white"/>
</g>
<g opacity="0.3">
<path opacity="0.3" d="M705.948 221.747H646.423V229.302H705.948V221.747Z" fill="white"/>
</g>
<g opacity="0.3">
<path opacity="0.3" d="M705.948 260.89H646.423V268.446H705.948V260.89Z" fill="white"/>
</g>
<g opacity="0.3">
<path opacity="0.3" d="M705.948 299.158H646.423V306.714H705.948V299.158Z" fill="white"/>
</g>
<path opacity="0.2" d="M711.968 303.165C711.955 303.539 711.829 303.901 711.61 304.204C711.391 304.508 711.085 304.74 710.733 304.872C710.382 305.005 710.003 305.031 709.638 304.948C709.266 304.865 708.935 304.677 708.676 304.405C708.417 304.135 708.244 303.794 708.178 303.426C708.112 303.057 708.151 302.677 708.304 302.332C708.45 301.988 708.696 301.694 709.008 301.489C709.32 301.283 709.691 301.174 710.063 301.175C710.574 301.197 711.059 301.416 711.417 301.787C711.769 302.158 711.968 302.652 711.968 303.165Z" fill="black"/>
<path d="M717.49 303.165C717.477 303.538 717.351 303.9 717.132 304.204C716.913 304.507 716.608 304.74 716.256 304.872C715.911 305.004 715.526 305.031 715.161 304.949C714.796 304.866 714.464 304.678 714.205 304.408C713.946 304.138 713.767 303.798 713.7 303.43C713.634 303.061 713.674 302.681 713.82 302.336C713.972 301.992 714.211 301.698 714.523 301.492C714.842 301.285 715.207 301.175 715.579 301.175C716.096 301.195 716.581 301.414 716.939 301.785C717.291 302.156 717.49 302.65 717.49 303.165Z" fill="#4D61FC"/>
<path d="M721.101 305.175C722.157 305.175 723.013 304.275 723.013 303.165C723.013 302.055 722.157 301.155 721.101 301.155C720.046 301.155 719.19 302.055 719.19 303.165C719.19 304.275 720.046 305.175 721.101 305.175Z" fill="#B2B6BB"/>
<path opacity="0.2" d="M711.968 109.862C711.955 110.237 711.829 110.599 711.61 110.902C711.391 111.206 711.085 111.438 710.733 111.57C710.382 111.702 710.003 111.729 709.638 111.646C709.266 111.563 708.935 111.374 708.676 111.103C708.417 110.833 708.244 110.492 708.178 110.123C708.112 109.755 708.151 109.375 708.304 109.03C708.45 108.686 708.696 108.392 709.008 108.187C709.32 107.981 709.691 107.872 710.063 107.872C710.574 107.895 711.059 108.114 711.417 108.485C711.769 108.856 711.968 109.35 711.968 109.862Z" fill="black"/>
<path d="M717.49 109.862C717.477 110.236 717.351 110.598 717.132 110.901C716.913 111.205 716.608 111.437 716.256 111.57C715.911 111.702 715.526 111.729 715.161 111.647C714.796 111.564 714.464 111.376 714.205 111.106C713.946 110.836 713.767 110.496 713.7 110.128C713.634 109.759 713.674 109.379 713.82 109.034C713.972 108.69 714.211 108.396 714.523 108.19C714.842 107.983 715.207 107.873 715.579 107.872C716.096 107.893 716.581 108.112 716.939 108.483C717.291 108.854 717.49 109.348 717.49 109.862Z" fill="#4D61FC"/>
<path d="M721.101 111.873C722.157 111.873 723.013 110.973 723.013 109.863C723.013 108.753 722.157 107.853 721.101 107.853C720.046 107.853 719.19 108.753 719.19 109.863C719.19 110.973 720.046 111.873 721.101 111.873Z" fill="#B2B6BB"/>
<path opacity="0.2" d="M711.968 148.448C711.955 148.823 711.829 149.185 711.61 149.488C711.391 149.792 711.085 150.024 710.733 150.156C710.382 150.288 710.003 150.315 709.638 150.232C709.266 150.149 708.935 149.96 708.676 149.689C708.417 149.419 708.244 149.078 708.178 148.709C708.112 148.341 708.151 147.96 708.304 147.616C708.45 147.272 708.696 146.978 709.008 146.773C709.32 146.566 709.691 146.458 710.063 146.458C710.574 146.481 711.059 146.7 711.417 147.071C711.769 147.442 711.968 147.936 711.968 148.448Z" fill="black"/>
<path d="M717.49 148.448C717.477 148.822 717.351 149.184 717.132 149.487C716.913 149.791 716.608 150.023 716.256 150.156C715.911 150.289 715.526 150.315 715.161 150.233C714.796 150.15 714.464 149.962 714.205 149.692C713.946 149.422 713.767 149.082 713.7 148.713C713.634 148.345 713.674 147.965 713.82 147.62C713.972 147.276 714.211 146.982 714.523 146.776C714.842 146.569 715.207 146.459 715.579 146.458C716.096 146.479 716.581 146.698 716.939 147.069C717.291 147.44 717.49 147.934 717.49 148.448Z" fill="#4D61FC"/>
<path d="M721.101 150.459C722.157 150.459 723.013 149.559 723.013 148.449C723.013 147.339 722.157 146.439 721.101 146.439C720.046 146.439 719.19 147.339 719.19 148.449C719.19 149.559 720.046 150.459 721.101 150.459Z" fill="#B2B6BB"/>
<path opacity="0.2" d="M711.968 187.665C711.955 188.04 711.829 188.402 711.61 188.705C711.391 189.008 711.085 189.241 710.733 189.373C710.382 189.505 710.003 189.532 709.638 189.449C709.266 189.366 708.935 189.177 708.676 188.906C708.417 188.636 708.244 188.295 708.178 187.926C708.112 187.558 708.151 187.178 708.304 186.833C708.45 186.489 708.696 186.195 709.008 185.99C709.32 185.784 709.691 185.675 710.063 185.675C710.574 185.698 711.059 185.917 711.417 186.288C711.769 186.659 711.968 187.153 711.968 187.665Z" fill="black"/>
<path d="M717.49 187.665C717.477 188.039 717.351 188.401 717.132 188.704C716.913 189.008 716.608 189.24 716.256 189.373C715.911 189.505 715.526 189.532 715.161 189.45C714.796 189.367 714.464 189.179 714.205 188.909C713.946 188.639 713.767 188.299 713.7 187.931C713.634 187.562 713.674 187.182 713.82 186.837C713.972 186.493 714.211 186.199 714.523 185.993C714.842 185.786 715.207 185.676 715.579 185.675C716.096 185.696 716.581 185.915 716.939 186.286C717.291 186.657 717.49 187.151 717.49 187.665Z" fill="#4D61FC"/>
<path d="M721.101 189.674C722.157 189.674 723.013 188.775 723.013 187.665C723.013 186.555 722.157 185.655 721.101 185.655C720.046 185.655 719.19 186.555 719.19 187.665C719.19 188.775 720.046 189.674 721.101 189.674Z" fill="#B2B6BB"/>
<path opacity="0.2" d="M711.968 264.857C711.955 265.232 711.829 265.593 711.61 265.897C711.391 266.2 711.085 266.433 710.733 266.565C710.382 266.698 710.003 266.723 709.638 266.64C709.266 266.558 708.935 266.369 708.676 266.098C708.417 265.827 708.244 265.486 708.178 265.118C708.112 264.749 708.151 264.369 708.304 264.025C708.45 263.68 708.696 263.387 709.008 263.181C709.32 262.976 709.691 262.866 710.063 262.867C710.581 262.881 711.072 263.098 711.424 263.47C711.782 263.843 711.975 264.341 711.968 264.857Z" fill="black"/>
<path d="M717.49 264.857C717.477 265.231 717.351 265.592 717.132 265.896C716.913 266.199 716.608 266.432 716.256 266.564C715.911 266.697 715.526 266.723 715.161 266.641C714.796 266.558 714.464 266.37 714.205 266.101C713.946 265.831 713.767 265.49 713.7 265.122C713.634 264.754 713.674 264.374 713.82 264.029C713.972 263.685 714.211 263.391 714.523 263.184C714.842 262.978 715.207 262.867 715.579 262.867C716.096 262.888 716.581 263.106 716.939 263.478C717.291 263.848 717.49 264.343 717.49 264.857Z" fill="#4D61FC"/>
<path d="M721.101 266.867C722.157 266.867 723.013 265.968 723.013 264.858C723.013 263.748 722.157 262.848 721.101 262.848C720.046 262.848 719.19 263.748 719.19 264.858C719.19 265.968 720.046 266.867 721.101 266.867Z" fill="#B2B6BB"/>
<path d="M680.705 12.3332H634.946L631.402 8.9104H680.705V12.3332Z" fill="#4D61FC"/>
<path d="M680.705 17.5011H634.946L631.402 14.0784H680.705V17.5011Z" fill="#4D61FC"/>
<path d="M680.705 22.6678H634.946L631.402 19.245H680.705V22.6678Z" fill="#4D61FC"/>
<path d="M680.705 27.8278H634.946L631.402 24.4116H680.705V27.8278Z" fill="#4D61FC"/>
<path d="M680.705 32.9959H634.946L631.402 29.5731H680.705V32.9959Z" fill="#4D61FC"/>
<path d="M680.705 38.1626H634.946L631.402 34.7399H680.705V38.1626Z" fill="#4D61FC"/>
<path d="M738.339 12.3332H692.58L689.035 8.9104H738.339V12.3332Z" fill="#4D61FC"/>
<path d="M738.339 17.5011H692.58L689.035 14.0784H738.339V17.5011Z" fill="#4D61FC"/>
<path d="M738.339 22.6678H692.58L689.035 19.245H738.339V22.6678Z" fill="#4D61FC"/>
<path d="M738.339 27.8278H692.58L689.035 24.4116H738.339V27.8278Z" fill="#4D61FC"/>
<path d="M738.339 32.9959H692.58L689.035 29.5731H738.339V32.9959Z" fill="#4D61FC"/>
<path d="M738.339 38.1626H692.58L689.035 34.7399H738.339V38.1626Z" fill="#4D61FC"/>
<g opacity="0.3">
<path opacity="0.3" d="M680.705 12.3332H634.946L631.402 8.9104H680.705V12.3332Z" fill="black"/>
<path opacity="0.3" d="M680.705 17.4998H634.946L631.402 14.077H680.705V17.4998Z" fill="black"/>
<path opacity="0.3" d="M680.705 22.6679H634.946L631.402 19.2451H680.705V22.6679Z" fill="black"/>
<path opacity="0.3" d="M680.705 27.8281H634.946L631.402 24.4119H680.705V27.8281Z" fill="black"/>
<path opacity="0.3" d="M680.705 32.996H634.946L631.402 29.5732H680.705V32.996Z" fill="black"/>
<path opacity="0.3" d="M680.705 38.1628H634.946L631.402 34.74H680.705V38.1628Z" fill="black"/>
</g>
<g opacity="0.3">
<path opacity="0.3" d="M738.339 12.3332H692.58L689.035 8.9104H738.339V12.3332Z" fill="black"/>
<path opacity="0.3" d="M738.339 17.4998H692.58L689.035 14.077H738.339V17.4998Z" fill="black"/>
<path opacity="0.3" d="M738.339 22.6679H692.58L689.035 19.2451H738.339V22.6679Z" fill="black"/>
<path opacity="0.3" d="M738.339 27.8281H692.58L689.035 24.4119H738.339V27.8281Z" fill="black"/>
<path opacity="0.3" d="M738.339 32.996H692.58L689.035 29.5732H738.339V32.996Z" fill="black"/>
<path opacity="0.3" d="M738.339 38.1628H692.58L689.035 34.74H738.339V38.1628Z" fill="black"/>
</g>
<path d="M785.272 57.1206H753.778V36.1196H785.272V57.1206ZM754.123 56.7757H784.921V36.4712H754.123V56.7757Z" fill="#4D61FC"/>
<path d="M785.272 86.2351H753.778V65.234H785.272V86.2351ZM754.123 85.8901H784.921V65.5856H754.123V85.8901Z" fill="#4D61FC"/>
<path d="M785.272 116.841H753.778V95.86H785.272V116.841ZM754.123 116.49H784.921V96.185H754.123V116.49Z" fill="#4D61FC"/>
<path d="M785.272 145.954H753.778V124.953H785.272V145.954ZM754.123 145.603H784.921V125.298H754.123V145.603Z" fill="#4D61FC"/>
<path d="M785.272 307.794H753.778V157.125H785.272V307.794ZM754.123 307.443H784.921V157.47H754.123V307.443Z" fill="#4D61FC"/>
<path d="M649.144 343.947H795.926C795.979 343.947 796.032 343.967 796.072 344.006C796.112 344.046 796.131 344.099 796.131 344.152V387.521C796.131 387.574 796.112 387.634 796.072 387.674C796.032 387.714 795.979 387.733 795.919 387.733H649.144C649.091 387.733 649.038 387.714 648.998 387.674C648.958 387.634 648.938 387.581 648.938 387.528V344.159C648.938 344.106 648.958 344.053 648.998 344.013C649.038 343.973 649.091 343.947 649.144 343.947Z" fill="#61656D"/>
<g opacity="0.2">
<path opacity="0.2" d="M649.144 343.947H795.926C795.979 343.947 796.032 343.967 796.072 344.006C796.112 344.046 796.131 344.099 796.131 344.152V387.521C796.131 387.574 796.112 387.634 796.072 387.674C796.032 387.714 795.979 387.733 795.919 387.733H649.144C649.091 387.733 649.038 387.714 648.998 387.674C648.958 387.634 648.938 387.581 648.938 387.528V344.159C648.938 344.106 648.958 344.053 648.998 344.013C649.038 343.973 649.091 343.947 649.144 343.947Z" fill="black"/>
</g>
<path d="M754.189 343.947H617.025C616.999 343.947 616.972 343.953 616.945 343.967C616.926 343.973 616.899 343.993 616.886 344.013C616.866 344.033 616.853 344.053 616.846 344.079C616.833 344.106 616.833 344.133 616.833 344.159V387.521C616.833 387.548 616.839 387.574 616.846 387.601C616.853 387.627 616.872 387.647 616.886 387.667C616.906 387.687 616.932 387.707 616.952 387.713C616.979 387.727 617.005 387.733 617.032 387.733H754.196C754.222 387.733 754.249 387.727 754.269 387.713C754.295 387.707 754.315 387.687 754.335 387.674C754.355 387.654 754.368 387.627 754.375 387.607C754.388 387.581 754.388 387.554 754.388 387.528V344.159C754.388 344.133 754.382 344.106 754.375 344.079C754.368 344.053 754.348 344.033 754.335 344.013C754.315 343.993 754.295 343.973 754.269 343.967C754.242 343.953 754.216 343.947 754.189 343.947Z" fill="#61656D"/>
<path d="M662.445 349.366H621.479V355.091H662.445V349.366Z" fill="#DADDDF"/>
<path d="M248.927 306.801C232.951 303.544 232.818 242.995 232.705 189.57C232.626 155.481 232.559 123.283 228.059 114.613C219.656 98.3149 202.983 98.5272 202.836 98.5272V97.3929C203.009 97.3929 220.379 97.1475 229.108 114.096C233.714 123.031 233.754 153.896 233.86 189.596C233.973 239.963 234.112 302.642 249.18 305.68L248.927 306.801Z" fill="#61656D"/>
<path d="M250.164 298.436C240.281 298.436 233.909 284.765 230.689 256.646C227.928 232.487 227.822 201.171 227.729 173.544C227.63 143.355 227.543 117.28 224.158 107.794C218.025 90.6335 203.37 92.6036 202.752 92.6965L202.58 91.5754C202.746 91.5754 218.769 89.3533 225.227 107.416C228.678 117.081 228.765 143.236 228.864 173.544C229.043 228.68 229.269 297.308 250.164 297.308V298.436Z" fill="#61656D"/>
<path d="M248.451 312.571C229.973 308.976 230.225 240.042 230.431 184.654C230.543 154.28 230.643 128.038 227.576 120.31C220.833 103.303 202.586 104.895 202.4 104.914L202.307 103.82C202.5 103.82 221.556 102.135 228.645 119.926C231.791 127.886 231.698 154.2 231.586 184.694C231.393 236.765 231.128 308.074 248.69 311.496L248.451 312.571Z" fill="#61656D"/>
<path d="M248.451 309.68C229.972 306.085 230.224 237.151 230.43 181.763C230.543 151.382 230.642 125.147 227.576 117.42C220.832 100.412 202.586 102.004 202.4 102.024L202.287 100.896C202.479 100.896 221.536 99.2112 228.625 117.002C231.771 124.962 231.678 151.27 231.565 181.77C231.372 233.841 231.107 305.15 248.67 308.566L248.451 309.68Z" fill="#61656D"/>
<path d="M248.927 369.631C232.951 366.374 232.818 315.238 232.705 270.131C232.626 240.944 232.553 213.423 228.059 204.733C219.643 188.408 202.983 188.647 202.836 188.647V187.513C203.009 187.513 220.379 187.267 229.108 204.216C233.714 213.144 233.754 239.551 233.86 270.131C233.98 314.8 234.106 365.432 249.18 368.51L248.927 369.631Z" fill="#61656D"/>
<path d="M250.164 361.286C228.141 361.286 227.922 305.321 227.729 255.942C227.63 229.92 227.543 207.446 224.158 197.967C218.025 180.8 203.37 182.777 202.752 182.863L202.58 181.749C202.739 181.749 218.769 179.526 225.227 197.589C228.678 207.247 228.765 229.814 228.864 255.962C229.043 302.396 229.269 360.172 250.164 360.172V361.286Z" fill="#61656D"/>
<path d="M250.164 364.901C228.141 364.901 227.922 308.937 227.729 259.565C227.63 233.536 227.543 211.062 224.158 201.583C218.025 184.422 203.37 186.392 202.752 186.485L202.58 185.364C202.739 185.364 218.769 183.142 225.227 201.205C228.678 210.863 228.765 233.429 228.864 259.578C229.043 306.011 229.269 363.787 250.164 363.787V364.901Z" fill="#61656D"/>
<path d="M250.164 370.805C228.141 370.805 227.922 314.846 227.729 265.468C227.63 239.445 227.543 216.965 224.158 207.492C218.025 190.325 203.37 192.295 202.752 192.388L202.58 191.267C202.746 191.267 218.769 189.045 225.227 207.108C228.678 216.766 228.765 239.332 228.864 265.481C229.043 311.914 229.269 369.697 250.164 369.697V370.805Z" fill="#61656D"/>
<path d="M248.451 375.422C229.972 371.82 230.224 313.626 230.43 266.861C230.543 240.759 230.642 218.219 227.576 210.478C220.832 193.47 202.586 195.062 202.4 195.075L202.287 193.954C202.479 193.954 221.536 192.27 228.625 210.06C231.777 218.02 231.678 240.64 231.565 266.855C231.359 313.202 231.107 370.885 248.67 374.314L248.451 375.422Z" fill="#61656D"/>
<path d="M207.359 0.69751H162.742V344.51H207.359V0.69751Z" fill="#4D61FC"/>
<path opacity="0.15" d="M207.359 0.69751H162.742V344.51H207.359V0.69751Z" fill="black"/>
<path d="M163.047 0.718018H38.5272V344.524H163.047V0.718018Z" fill="#4D61FC"/>
<path opacity="0.3" d="M163.047 0.718018H38.5272V344.524H163.047V0.718018Z" fill="white"/>
<path d="M154.604 50.3619H46.9767V322.786H154.604V50.3619Z" fill="#4D61FC"/>
<path opacity="0.2" d="M154.604 50.3619H46.9767V322.786H154.604V50.3619Z" fill="black"/>
<path d="M151.14 92.8684H50.4355V126.009H151.14V92.8684Z" fill="#4D61FC"/>
<path d="M151.14 131.435H50.4355V164.575H151.14V131.435Z" fill="#4D61FC"/>
<path d="M151.14 170.001H50.4355V203.14H151.14V170.001Z" fill="#4D61FC"/>
<path d="M151.14 208.573H50.4355V241.714H151.14V208.573Z" fill="#4D61FC"/>
<path d="M151.14 247.14H50.4355V280.281H151.14V247.14Z" fill="#4D61FC"/>
<path d="M151.14 285.705H50.4355V318.845H151.14V285.705Z" fill="#4D61FC"/>
<path d="M151.14 54.3021H50.4355V87.4423H151.14V54.3021Z" fill="#4D61FC"/>
<g opacity="0.3">
<path opacity="0.3" d="M151.14 92.8683H50.4355V126.008H151.14V92.8683Z" fill="white"/>
<path opacity="0.3" d="M151.14 131.434H50.4355V164.574H151.14V131.434Z" fill="white"/>
<path opacity="0.3" d="M151.14 170.001H50.4355V203.14H151.14V170.001Z" fill="white"/>
<path opacity="0.3" d="M151.14 208.573H50.4355V241.714H151.14V208.573Z" fill="white"/>
<path opacity="0.3" d="M151.14 247.14H50.4355V280.281H151.14V247.14Z" fill="white"/>
<path opacity="0.3" d="M151.14 285.705H50.4355V318.845H151.14V285.705Z" fill="white"/>
<path opacity="0.3" d="M151.14 54.3021H50.4355V87.4423H151.14V54.3021Z" fill="white"/>
</g>
<path d="M141.594 62.9056H58.5851V79.3763H141.594V62.9056Z" fill="#4D61FC"/>
<path opacity="0.2" d="M141.594 62.9056H58.5851V79.3763H141.594V62.9056Z" fill="black"/>
<path d="M121.475 67.4091H61.9503V74.9644H121.475V67.4091Z" fill="#4D61FC"/>
<path opacity="0.2" d="M125.591 73.1999C126.647 73.1999 127.502 72.3004 127.502 71.19C127.502 70.0802 126.647 69.1801 125.591 69.1801C124.535 69.1801 123.679 70.0802 123.679 71.19C123.679 72.3004 124.535 73.1999 125.591 73.1999Z" fill="black"/>
<path d="M131.108 73.1999C132.164 73.1999 133.02 72.3004 133.02 71.19C133.02 70.0802 132.164 69.1801 131.108 69.1801C130.052 69.1801 129.197 70.0802 129.197 71.19C129.197 72.3004 130.052 73.1999 131.108 73.1999Z" fill="#4D61FC"/>
<path d="M136.631 73.1999C137.686 73.1999 138.542 72.3004 138.542 71.19C138.542 70.0802 137.686 69.1801 136.631 69.1801C135.575 69.1801 134.719 70.0802 134.719 71.19C134.719 72.3004 135.575 73.1999 136.631 73.1999Z" fill="#B2B6BB"/>
<path d="M141.594 101.902H58.5851V118.373H141.594V101.902Z" fill="#4D61FC"/>
<path opacity="0.2" d="M141.594 101.902H58.5851V118.373H141.594V101.902Z" fill="black"/>
<path d="M121.475 106.414H61.9503V113.969H121.475V106.414Z" fill="#4D61FC"/>
<path d="M141.594 140.907H58.5851V157.378H141.594V140.907Z" fill="#4D61FC"/>
<path opacity="0.2" d="M141.594 140.907H58.5851V157.378H141.594V140.907Z" fill="black"/>
<path d="M121.475 145.41H61.9503V152.966H121.475V145.41Z" fill="#4D61FC"/>
<path d="M141.594 179.904H58.5851V196.374H141.594V179.904Z" fill="#4D61FC"/>
<path opacity="0.2" d="M141.594 179.904H58.5851V196.374H141.594V179.904Z" fill="black"/>
<path d="M121.475 184.408H61.9503V191.964H121.475V184.408Z" fill="#4D61FC"/>
<path d="M141.594 217.88H58.5851V234.35H141.594V217.88Z" fill="#4D61FC"/>
<path opacity="0.2" d="M141.594 217.88H58.5851V234.35H141.594V217.88Z" fill="black"/>
<path d="M121.475 222.384H61.9503V229.94H121.475V222.384Z" fill="#4D61FC"/>
<path opacity="0.2" d="M125.591 228.328C126.647 228.328 127.502 227.428 127.502 226.318C127.502 225.208 126.647 224.308 125.591 224.308C124.535 224.308 123.679 225.208 123.679 226.318C123.679 227.428 124.535 228.328 125.591 228.328Z" fill="black"/>
<path d="M131.108 228.328C132.164 228.328 133.02 227.428 133.02 226.318C133.02 225.208 132.164 224.308 131.108 224.308C130.052 224.308 129.197 225.208 129.197 226.318C129.197 227.428 130.052 228.328 131.108 228.328Z" fill="#4D61FC"/>
<path d="M136.631 228.328C137.686 228.328 138.542 227.428 138.542 226.318C138.542 225.208 137.686 224.308 136.631 224.308C135.575 224.308 134.719 225.208 134.719 226.318C134.719 227.428 135.575 228.328 136.631 228.328Z" fill="#B2B6BB"/>
<path d="M141.594 257.024H58.5851V273.495H141.594V257.024Z" fill="#4D61FC"/>
<path opacity="0.2" d="M141.594 257.024H58.5851V273.495H141.594V257.024Z" fill="black"/>
<path d="M121.475 261.534H61.9503V269.09H121.475V261.534Z" fill="#4D61FC"/>
<path d="M141.594 295.298H58.5851V311.768H141.594V295.298Z" fill="#4D61FC"/>
<path opacity="0.2" d="M141.594 295.298H58.5851V311.768H141.594V295.298Z" fill="black"/>
<path d="M121.475 299.801H61.9503V307.357H121.475V299.801Z" fill="#4D61FC"/>
<path opacity="0.3" d="M121.475 67.4091H61.9503V74.9644H121.475V67.4091Z" fill="white"/>
<g opacity="0.3">
<path opacity="0.3" d="M121.475 106.414H61.9503V113.969H121.475V106.414Z" fill="white"/>
</g>
<g opacity="0.3">
<path opacity="0.3" d="M121.475 145.41H61.9503V152.966H121.475V145.41Z" fill="white"/>
</g>
<g opacity="0.3">
<path opacity="0.3" d="M121.475 184.408H61.9503V191.964H121.475V184.408Z" fill="white"/>
</g>
<g opacity="0.3">
<path opacity="0.3" d="M121.475 222.384H61.9503V229.94H121.475V222.384Z" fill="white"/>
</g>
<g opacity="0.3">
<path opacity="0.3" d="M121.475 261.534H61.9503V269.09H121.475V261.534Z" fill="white"/>
</g>
<g opacity="0.3">
<path opacity="0.3" d="M121.475 299.801H61.9503V307.357H121.475V299.801Z" fill="white"/>
</g>
<path opacity="0.2" d="M127.496 303.808C127.48 304.183 127.354 304.545 127.135 304.848C126.915 305.152 126.611 305.384 126.26 305.517C125.909 305.649 125.528 305.675 125.162 305.592C124.796 305.509 124.464 305.32 124.204 305.05C123.945 304.779 123.771 304.438 123.704 304.069C123.638 303.7 123.681 303.32 123.828 302.976C123.976 302.632 124.222 302.338 124.535 302.133C124.849 301.926 125.216 301.818 125.591 301.818C126.104 301.841 126.588 302.06 126.943 302.431C127.298 302.802 127.496 303.296 127.496 303.808Z" fill="black"/>
<path d="M133.018 303.808C133.003 304.183 132.877 304.544 132.658 304.847C132.439 305.151 132.135 305.383 131.785 305.516C131.434 305.649 131.053 305.675 130.687 305.593C130.322 305.51 129.989 305.322 129.729 305.052C129.47 304.782 129.295 304.442 129.228 304.073C129.16 303.705 129.203 303.325 129.349 302.981C129.496 302.636 129.741 302.342 130.053 302.136C130.366 301.929 130.732 301.819 131.106 301.818C131.621 301.839 132.107 302.058 132.463 302.429C132.82 302.8 133.019 303.294 133.018 303.808Z" fill="#4D61FC"/>
<path d="M136.631 305.819C137.686 305.819 138.542 304.919 138.542 303.809C138.542 302.699 137.686 301.799 136.631 301.799C135.575 301.799 134.719 302.699 134.719 303.809C134.719 304.919 135.575 305.819 136.631 305.819Z" fill="#B2B6BB"/>
<path opacity="0.2" d="M127.496 110.506C127.48 110.881 127.354 111.242 127.135 111.546C126.915 111.85 126.611 112.082 126.26 112.214C125.909 112.346 125.528 112.373 125.162 112.29C124.796 112.206 124.464 112.018 124.204 111.747C123.945 111.477 123.771 111.136 123.704 110.767C123.638 110.398 123.681 110.018 123.828 109.674C123.976 109.33 124.222 109.037 124.535 108.831C124.849 108.625 125.216 108.516 125.591 108.516C126.104 108.539 126.588 108.758 126.943 109.129C127.298 109.499 127.496 109.993 127.496 110.506Z" fill="black"/>
<path d="M133.018 110.506C133.003 110.881 132.877 111.242 132.658 111.545C132.439 111.849 132.135 112.081 131.785 112.214C131.434 112.346 131.053 112.373 130.687 112.29C130.322 112.208 129.989 112.02 129.729 111.75C129.47 111.48 129.295 111.139 129.228 110.771C129.16 110.403 129.203 110.023 129.349 109.679C129.496 109.334 129.741 109.04 130.053 108.834C130.366 108.627 130.732 108.517 131.106 108.516C131.621 108.537 132.107 108.756 132.463 109.127C132.82 109.498 133.019 109.992 133.018 110.506Z" fill="#4D61FC"/>
<path d="M136.631 112.517C137.686 112.517 138.542 111.617 138.542 110.507C138.542 109.397 137.686 108.497 136.631 108.497C135.575 108.497 134.719 109.397 134.719 110.507C134.719 111.617 135.575 112.517 136.631 112.517Z" fill="#B2B6BB"/>
<path opacity="0.2" d="M127.496 149.086C127.48 149.461 127.354 149.822 127.135 150.125C126.915 150.429 126.611 150.661 126.26 150.794C125.909 150.926 125.528 150.952 125.162 150.87C124.796 150.787 124.464 150.598 124.204 150.327C123.945 150.056 123.771 149.715 123.704 149.347C123.638 148.978 123.681 148.598 123.828 148.253C123.976 147.909 124.222 147.616 124.535 147.41C124.849 147.204 125.216 147.095 125.591 147.096C126.106 147.11 126.596 147.327 126.953 147.699C127.309 148.072 127.504 148.57 127.496 149.086Z" fill="black"/>
<path d="M133.018 149.086C133.003 149.46 132.877 149.822 132.658 150.125C132.439 150.428 132.135 150.661 131.785 150.793C131.434 150.926 131.053 150.952 130.687 150.87C130.322 150.787 129.989 150.6 129.729 150.33C129.47 150.06 129.295 149.719 129.228 149.351C129.16 148.982 129.203 148.602 129.349 148.258C129.496 147.914 129.741 147.62 130.053 147.414C130.366 147.207 130.732 147.096 131.106 147.096C131.621 147.116 132.107 147.335 132.463 147.706C132.82 148.078 133.019 148.572 133.018 149.086Z" fill="#4D61FC"/>
<path d="M136.631 151.096C137.686 151.096 138.542 150.196 138.542 149.087C138.542 147.976 137.686 147.077 136.631 147.077C135.575 147.077 134.719 147.976 134.719 149.087C134.719 150.196 135.575 151.096 136.631 151.096Z" fill="#B2B6BB"/>
<path opacity="0.2" d="M127.496 188.308C127.48 188.682 127.354 189.044 127.135 189.348C126.915 189.651 126.611 189.883 126.26 190.016C125.909 190.148 125.528 190.175 125.162 190.092C124.796 190.008 124.464 189.82 124.204 189.549C123.945 189.279 123.771 188.938 123.704 188.569C123.638 188.2 123.681 187.82 123.828 187.476C123.976 187.131 124.222 186.838 124.535 186.633C124.849 186.426 125.216 186.317 125.591 186.318C126.104 186.341 126.588 186.56 126.943 186.93C127.298 187.302 127.496 187.795 127.496 188.308Z" fill="black"/>
<path d="M133.018 188.308C133.003 188.682 132.877 189.044 132.658 189.347C132.439 189.651 132.135 189.883 131.785 190.016C131.434 190.148 131.053 190.175 130.687 190.092C130.322 190.01 129.989 189.822 129.729 189.552C129.47 189.282 129.295 188.941 129.228 188.573C129.16 188.205 129.203 187.825 129.349 187.48C129.496 187.136 129.741 186.842 130.053 186.635C130.366 186.429 130.732 186.319 131.106 186.318C131.621 186.339 132.107 186.558 132.463 186.928C132.82 187.299 133.019 187.794 133.018 188.308Z" fill="#4D61FC"/>
<path d="M136.631 190.319C137.686 190.319 138.542 189.418 138.542 188.309C138.542 187.198 137.686 186.299 136.631 186.299C135.575 186.299 134.719 187.198 134.719 188.309C134.719 189.418 135.575 190.319 136.631 190.319Z" fill="#B2B6BB"/>
<path opacity="0.2" d="M127.496 265.501C127.48 265.876 127.354 266.237 127.135 266.54C126.915 266.844 126.611 267.076 126.26 267.209C125.909 267.341 125.528 267.368 125.162 267.285C124.796 267.202 124.464 267.013 124.204 266.742C123.945 266.471 123.771 266.13 123.704 265.762C123.638 265.393 123.681 265.013 123.828 264.668C123.976 264.324 124.222 264.031 124.535 263.825C124.849 263.619 125.216 263.51 125.591 263.511C126.104 263.534 126.588 263.753 126.943 264.124C127.298 264.495 127.496 264.988 127.496 265.501Z" fill="black"/>
<path d="M133.018 265.501C133.003 265.875 132.877 266.237 132.658 266.54C132.439 266.844 132.135 267.076 131.785 267.208C131.434 267.341 131.053 267.368 130.687 267.285C130.322 267.202 129.989 267.015 129.729 266.745C129.47 266.475 129.295 266.134 129.228 265.766C129.16 265.397 129.203 265.017 129.349 264.673C129.496 264.329 129.741 264.035 130.053 263.829C130.366 263.622 130.732 263.512 131.106 263.511C131.621 263.532 132.107 263.75 132.463 264.121C132.82 264.493 133.019 264.987 133.018 265.501Z" fill="#4D61FC"/>
<path d="M136.631 267.511C137.686 267.511 138.542 266.611 138.542 265.502C138.542 264.391 137.686 263.492 136.631 263.492C135.575 263.492 134.719 264.391 134.719 265.502C134.719 266.611 135.575 267.511 136.631 267.511Z" fill="#B2B6BB"/>
<path d="M96.2336 12.9772H50.4747L46.9302 9.55444H96.2336V12.9772Z" fill="#4D61FC"/>
<path d="M96.2336 18.1439H50.4747L46.9302 14.7211H96.2336V18.1439Z" fill="#4D61FC"/>
<path d="M96.2336 23.3051H50.4747L46.9302 19.889H96.2336V23.3051Z" fill="#4D61FC"/>
<path d="M96.2336 28.472H50.4747L46.9302 25.0492H96.2336V28.472Z" fill="#4D61FC"/>
<path d="M96.2336 33.6387H50.4747L46.9302 30.2159H96.2336V33.6387Z" fill="#4D61FC"/>
<path d="M96.2336 38.8067H50.4747L46.9302 35.3839H96.2336V38.8067Z" fill="#4D61FC"/>
<path d="M153.866 12.9772H108.1L104.562 9.55444H153.866V12.9772Z" fill="#4D61FC"/>
<path d="M153.866 18.1439H108.1L104.562 14.7211H153.866V18.1439Z" fill="#4D61FC"/>
<path d="M153.866 23.3051H108.1L104.562 19.889H153.866V23.3051Z" fill="#4D61FC"/>
<path d="M153.866 28.472H108.1L104.562 25.0492H153.866V28.472Z" fill="#4D61FC"/>
<path d="M153.866 33.6387H108.1L104.562 30.2159H153.866V33.6387Z" fill="#4D61FC"/>
<path d="M153.866 38.8067H108.1L104.562 35.3839H153.866V38.8067Z" fill="#4D61FC"/>
<g opacity="0.3">
<path opacity="0.3" d="M96.2336 12.9772H50.4747L46.9302 9.55444H96.2336V12.9772Z" fill="black"/>
<path opacity="0.3" d="M96.2336 18.1439H50.4747L46.9302 14.7211H96.2336V18.1439Z" fill="black"/>
<path opacity="0.3" d="M96.2336 23.3053H50.4747L46.9302 19.8892H96.2336V23.3053Z" fill="black"/>
<path opacity="0.3" d="M96.2336 28.4721H50.4747L46.9302 25.0493H96.2336V28.4721Z" fill="black"/>
<path opacity="0.3" d="M96.2336 33.6401H50.4747L46.9302 30.2173H96.2336V33.6401Z" fill="black"/>
<path opacity="0.3" d="M96.2336 38.8069H50.4747L46.9302 35.384H96.2336V38.8069Z" fill="black"/>
</g>
<g opacity="0.3">
<path opacity="0.3" d="M153.866 12.9772H108.1L104.562 9.55444H153.866V12.9772Z" fill="black"/>
<path opacity="0.3" d="M153.866 18.1439H108.1L104.562 14.7211H153.866V18.1439Z" fill="black"/>
<path opacity="0.3" d="M153.866 23.3053H108.1L104.562 19.8892H153.866V23.3053Z" fill="black"/>
<path opacity="0.3" d="M153.866 28.4721H108.1L104.562 25.0493H153.866V28.4721Z" fill="black"/>
<path opacity="0.3" d="M153.866 33.6401H108.1L104.562 30.2173H153.866V33.6401Z" fill="black"/>
<path opacity="0.3" d="M153.866 38.8069H108.1L104.562 35.384H153.866V38.8069Z" fill="black"/>
</g>
<path d="M200.795 57.7648H169.307V36.7637H200.795V57.7648ZM169.652 57.4199H200.45V37.1153H169.652V57.4199Z" fill="#4D61FC"/>
<path d="M200.795 86.8792H169.307V65.8781H200.795V86.8792ZM169.652 86.5276H200.45V66.223H169.652V86.5276Z" fill="#4D61FC"/>
<path d="M200.795 117.484H169.307V96.4829H200.795V117.484ZM169.652 117.132H200.45V96.8278H169.652V117.132Z" fill="#4D61FC"/>
<path d="M200.795 146.592H169.307V125.591H200.795V146.592ZM169.652 146.273H200.45V125.942H169.652V146.273Z" fill="#4D61FC"/>
<path d="M200.795 308.438H169.307V157.769H200.795V308.438ZM169.652 308.087H200.45V158.114H169.652V308.087Z" fill="#4D61FC"/>
<path d="M64.671 344.564H211.446C211.5 344.564 211.553 344.584 211.591 344.623C211.63 344.663 211.652 344.716 211.652 344.769V388.138C211.652 388.191 211.629 388.251 211.589 388.29C211.55 388.33 211.496 388.35 211.439 388.35H64.671C64.6165 388.35 64.5641 388.33 64.5256 388.29C64.4871 388.251 64.4652 388.198 64.4652 388.145V344.776C64.4652 344.723 64.4864 344.67 64.5249 344.63C64.5634 344.59 64.6159 344.564 64.671 344.564Z" fill="#61656D"/>
<g opacity="0.2">
<path opacity="0.2" d="M64.671 344.564H211.446C211.5 344.564 211.553 344.584 211.591 344.623C211.63 344.663 211.652 344.716 211.652 344.769V388.138C211.652 388.191 211.629 388.251 211.589 388.29C211.55 388.33 211.496 388.35 211.439 388.35H64.671C64.6165 388.35 64.5641 388.33 64.5256 388.29C64.4871 388.251 64.4652 388.198 64.4652 388.145V344.776C64.4652 344.723 64.4864 344.67 64.5249 344.63C64.5634 344.59 64.6159 344.564 64.671 344.564Z" fill="black"/>
</g>
<path d="M169.719 344.564H32.5548C32.5282 344.564 32.5023 344.57 32.4791 344.584C32.4552 344.59 32.4333 344.61 32.4154 344.623C32.3975 344.643 32.3835 344.67 32.3749 344.69C32.3656 344.716 32.361 344.743 32.3623 344.769V388.138C32.3603 388.164 32.3636 388.191 32.3729 388.218C32.3815 388.244 32.3955 388.264 32.4134 388.284C32.4313 388.304 32.4532 388.324 32.4771 388.33C32.5017 388.344 32.5276 388.35 32.5548 388.35H169.725C169.752 388.35 169.778 388.344 169.802 388.33C169.827 388.324 169.849 388.304 169.867 388.284C169.885 388.264 169.898 388.244 169.907 388.218C169.916 388.191 169.919 388.164 169.918 388.138V344.776C169.919 344.749 169.914 344.723 169.905 344.696C169.895 344.67 169.881 344.65 169.862 344.63C169.844 344.61 169.822 344.59 169.796 344.584C169.772 344.57 169.745 344.564 169.719 344.564Z" fill="#61656D"/>
<path d="M77.9745 350.003H37.0079V355.728H77.9745V350.003Z" fill="#DADDDF"/>
<path d="M447.524 210.995H355.926V215.638H447.524V210.995Z" fill="#61656D"/>
<path d="M822.104 390.115H1.62136C1.35785 390.115 1.1043 390.009 0.917784 389.823C0.730607 389.637 0.625732 389.385 0.625732 389.12C0.625732 388.854 0.730607 388.602 0.917784 388.417C1.1043 388.231 1.35785 388.125 1.62136 388.125H822.104C822.37 388.125 822.622 388.231 822.808 388.417C822.993 388.602 823.1 388.854 823.1 389.12C823.1 389.385 822.993 389.637 822.808 389.823C822.622 390.009 822.37 390.115 822.104 390.115Z" fill="#B2B6BB"/>
<path d="M361.522 221.548H331.427V388.085H361.522V221.548Z" fill="#B2B6BB"/>
<path opacity="0.2" d="M361.522 221.548H331.427V388.085H361.522V221.548Z" fill="black"/>
<path d="M336.577 221.548H245.285V388.085H336.577V221.548Z" fill="#B2B6BB"/>
<g opacity="0.2">
<path opacity="0.2" d="M329.628 260.871H251.744V231.937H329.628V260.871ZM252.786 259.837H328.593V232.978H252.786V259.837Z" fill="black"/>
</g>
<path opacity="0.2" d="M302.632 245.076H278.737V247.729H302.632V245.076Z" fill="black"/>
<g opacity="0.2">
<path opacity="0.2" d="M329.628 296.691H251.744V267.757H329.628V296.691ZM252.786 295.657H328.593V268.798H252.786V295.657Z" fill="black"/>
</g>
<path opacity="0.2" d="M302.632 280.896H278.737V283.55H302.632V280.896Z" fill="black"/>
<g opacity="0.2">
<path opacity="0.2" d="M329.628 332.512H251.744V303.577H329.628V332.512ZM252.786 331.477H328.593V304.618H252.786V331.477Z" fill="black"/>
</g>
<path opacity="0.2" d="M302.632 316.716H278.737V319.37H302.632V316.716Z" fill="black"/>
<g opacity="0.2">
<path opacity="0.2" d="M329.628 368.331H251.744V339.396H329.628V368.331ZM252.786 367.296H328.593V340.438H252.786V367.296Z" fill="black"/>
</g>
<path opacity="0.2" d="M302.632 352.537H278.737V355.19H302.632V352.537Z" fill="black"/>
<path d="M582.968 218.291H552.874V388.085H582.968V218.291Z" fill="#B2B6BB"/>
<path opacity="0.2" d="M582.968 218.291H552.874V388.085H582.968V218.291Z" fill="black"/>
<path d="M558.024 221.548H466.732V388.085H558.024V221.548Z" fill="#B2B6BB"/>
<path d="M588.902 215.366H239.18V222.125H588.902V215.366Z" fill="#B2B6BB"/>
<path opacity="0.2" d="M336.678 222.271H245.08V224.925H336.678V222.271Z" fill="black"/>
<path opacity="0.2" d="M558.038 222.271H466.773V224.925H558.038V222.271Z" fill="black"/>
<g opacity="0.2">
<path opacity="0.2" d="M551.32 260.871H473.436V231.937H551.32V260.871ZM474.478 259.837H550.285V232.978H474.478V259.837Z" fill="black"/>
</g>
<path opacity="0.2" d="M524.325 245.076H500.43V247.729H524.325V245.076Z" fill="black"/>
<g opacity="0.2">
<path opacity="0.2" d="M551.32 296.691H473.436V267.757H551.32V296.691ZM474.478 295.657H550.285V268.798H474.478V295.657Z" fill="black"/>
</g>
<path opacity="0.2" d="M524.325 280.896H500.43V283.55H524.325V280.896Z" fill="black"/>
<g opacity="0.2">
<path opacity="0.2" d="M551.32 332.512H473.436V303.577H551.32V332.512ZM474.478 331.477H550.285V304.618H474.478V331.477Z" fill="black"/>
</g>
<path opacity="0.2" d="M524.325 316.716H500.43V319.37H524.325V316.716Z" fill="black"/>
<g opacity="0.2">
<path opacity="0.2" d="M551.32 368.331H473.436V339.396H551.32V368.331ZM474.478 367.296H550.285V340.438H474.478V367.296Z" fill="black"/>
</g>
<path opacity="0.2" d="M524.325 352.537H500.43V355.19H524.325V352.537Z" fill="black"/>
<path d="M355.069 214.736H332.322L312.908 136.94H335.654L355.069 214.736Z" fill="#61656D"/>
<path opacity="0.2" d="M355.069 214.736H332.322L312.908 136.94H335.654L355.069 214.736Z" fill="black"/>
<path d="M353.498 214.736H330.751L311.336 136.94H334.083L353.498 214.736Z" fill="#61656D"/>
<path opacity="0.2" d="M349.415 192.09H325.055L324.033 187.991H348.393L349.415 192.09Z" fill="black"/>
<path d="M395.321 108.603H265.704V187.978H395.321V108.603Z" fill="#61656D"/>
<path d="M390.779 112.264H270.236V184.315H390.779V112.264Z" fill="#3F4249"/>
<path d="M316.704 117.266H277.503V120.337H316.704V117.266Z" fill="#4D61FC"/>
<path d="M307.465 122.513H277.503V125.584H307.465V122.513Z" fill="#4D61FC"/>
<path d="M313.339 127.753H277.503V130.824H313.339V127.753Z" fill="#4D61FC"/>
<path d="M306.489 133H277.503V136.071H306.489V133Z" fill="#4D61FC"/>
<path d="M319.626 138.241H286.863V141.312H319.626V138.241Z" fill="#4D61FC"/>
<path d="M316.705 144.549H286.863V147.62H316.705V144.549Z" fill="#4D61FC"/>
<path d="M307.465 149.79H277.503V152.861H307.465V149.79Z" fill="#4D61FC"/>
<path d="M313.339 155.037H277.503V158.108H313.339V155.037Z" fill="#4D61FC"/>
<path d="M306.489 160.276H277.503V163.347H306.489V160.276Z" fill="#4D61FC"/>
<path d="M319.625 165.523H277.503V168.595H319.625V165.523Z" fill="#4D61FC"/>
<path d="M326.188 171.526H290.353V174.598H326.188V171.526Z" fill="#4D61FC"/>
<path d="M319.625 177.537H277.503V180.608H319.625V177.537Z" fill="#4D61FC"/>
<g opacity="0.2">
<path opacity="0.2" d="M316.704 117.266H277.503V120.337H316.704V117.266Z" fill="black"/>
<path opacity="0.2" d="M307.465 122.513H277.503V125.584H307.465V122.513Z" fill="black"/>
<path opacity="0.2" d="M313.339 127.753H277.503V130.824H313.339V127.753Z" fill="black"/>
<path opacity="0.2" d="M306.489 133H277.503V136.071H306.489V133Z" fill="black"/>
<path opacity="0.2" d="M319.626 138.24H286.863V141.311H319.626V138.24Z" fill="black"/>
<path opacity="0.2" d="M316.705 144.549H286.863V147.62H316.705V144.549Z" fill="black"/>
<path opacity="0.2" d="M307.465 149.788H277.503V152.86H307.465V149.788Z" fill="black"/>
<path opacity="0.2" d="M313.339 155.035H277.503V158.107H313.339V155.035Z" fill="black"/>
<path opacity="0.2" d="M306.489 160.276H277.503V163.347H306.489V160.276Z" fill="black"/>
<path opacity="0.2" d="M319.625 165.523H277.503V168.594H319.625V165.523Z" fill="black"/>
<path opacity="0.2" d="M326.188 171.526H290.353V174.598H326.188V171.526Z" fill="black"/>
<path opacity="0.2" d="M319.625 177.536H277.503V180.607H319.625V177.536Z" fill="black"/>
</g>
<path d="M375.594 117.266H336.393V120.337H375.594V117.266Z" fill="#4D61FC"/>
<path d="M366.355 122.513H336.393V125.584H366.355V122.513Z" fill="#4D61FC"/>
<path d="M372.229 127.753H336.393V130.824H372.229V127.753Z" fill="#4D61FC"/>
<path d="M365.379 133H336.393V136.071H365.379V133Z" fill="#4D61FC"/>
<path d="M378.508 138.241H345.745V141.312H378.508V138.241Z" fill="#4D61FC"/>
<path d="M375.587 144.549H345.745V147.62H375.587V144.549Z" fill="#4D61FC"/>
<path d="M366.355 149.79H336.393V152.861H366.355V149.79Z" fill="#4D61FC"/>
<path d="M372.229 155.037H336.393V158.108H372.229V155.037Z" fill="#4D61FC"/>
<path d="M365.379 160.276H336.393V163.347H365.379V160.276Z" fill="#4D61FC"/>
<path d="M378.515 165.523H336.393V168.595H378.515V165.523Z" fill="#4D61FC"/>
<path d="M385.078 171.526H349.243V174.598H385.078V171.526Z" fill="#4D61FC"/>
<path d="M378.515 177.537H336.393V180.608H378.515V177.537Z" fill="#4D61FC"/>
<g opacity="0.2">
<path opacity="0.2" d="M375.594 117.266H336.393V120.337H375.594V117.266Z" fill="white"/>
<path opacity="0.2" d="M366.355 122.513H336.393V125.584H366.355V122.513Z" fill="white"/>
<path opacity="0.2" d="M372.229 127.753H336.393V130.824H372.229V127.753Z" fill="white"/>
<path opacity="0.2" d="M365.379 133H336.393V136.071H365.379V133Z" fill="white"/>
<path opacity="0.2" d="M378.508 138.24H345.745V141.311H378.508V138.24Z" fill="white"/>
<path opacity="0.2" d="M375.587 144.549H345.745V147.62H375.587V144.549Z" fill="white"/>
<path opacity="0.2" d="M366.355 149.788H336.393V152.86H366.355V149.788Z" fill="white"/>
<path opacity="0.2" d="M372.229 155.035H336.393V158.107H372.229V155.035Z" fill="white"/>
<path opacity="0.2" d="M365.379 160.276H336.393V163.347H365.379V160.276Z" fill="white"/>
<path opacity="0.2" d="M378.515 165.523H336.393V168.594H378.515V165.523Z" fill="white"/>
<path opacity="0.2" d="M385.078 171.526H349.243V174.598H385.078V171.526Z" fill="white"/>
<path opacity="0.2" d="M378.515 177.536H336.393V180.607H378.515V177.536Z" fill="white"/>
</g>
<path d="M397.092 108.583H395.306V187.977H397.092V108.583Z" fill="#61656D"/>
<path opacity="0.2" d="M397.092 108.583H395.306V187.977H397.092V108.583Z" fill="black"/>
<path d="M374.509 212.819H311.155V215.804H374.509V212.819Z" fill="#61656D"/>
<path d="M512.378 214.736H489.631L470.216 136.94H492.963L512.378 214.736Z" fill="#61656D"/>
<path opacity="0.2" d="M512.378 214.736H489.631L470.216 136.94H492.963L512.378 214.736Z" fill="black"/>
<path d="M510.807 214.736H488.06L468.645 136.94H491.392L510.807 214.736Z" fill="#61656D"/>
<path opacity="0.2" d="M506.724 192.09H482.364L481.342 187.991H505.702L506.724 192.09Z" fill="black"/>
<path d="M552.629 108.603H423.012V187.978H552.629V108.603Z" fill="#61656D"/>
<path d="M548.088 112.264H427.544V184.315H548.088V112.264Z" fill="#3F4249"/>
<path d="M474.013 117.266H434.812V120.337H474.013V117.266Z" fill="#4D61FC"/>
<path d="M464.773 122.513H434.812V125.584H464.773V122.513Z" fill="#4D61FC"/>
<path d="M470.648 127.753H434.812V130.824H470.648V127.753Z" fill="#4D61FC"/>
<path d="M463.798 133H434.812V136.071H463.798V133Z" fill="#4D61FC"/>
<path d="M476.935 138.241H444.172V141.312H476.935V138.241Z" fill="#4D61FC"/>
<path d="M474.014 144.549H444.172V147.62H474.014V144.549Z" fill="#4D61FC"/>
<path d="M464.773 149.79H434.812V152.861H464.773V149.79Z" fill="#4D61FC"/>
<path d="M470.648 155.037H434.812V158.108H470.648V155.037Z" fill="#4D61FC"/>
<path d="M463.798 160.276H434.812V163.347H463.798V160.276Z" fill="#4D61FC"/>
<path d="M476.933 165.523H434.812V168.595H476.933V165.523Z" fill="#4D61FC"/>
<path d="M483.497 171.526H447.661V174.598H483.497V171.526Z" fill="#4D61FC"/>
<path d="M476.933 177.537H434.812V180.608H476.933V177.537Z" fill="#4D61FC"/>
<g opacity="0.2">
<path opacity="0.2" d="M474.013 117.266H434.812V120.337H474.013V117.266Z" fill="black"/>
<path opacity="0.2" d="M464.773 122.513H434.812V125.584H464.773V122.513Z" fill="black"/>
<path opacity="0.2" d="M470.648 127.753H434.812V130.824H470.648V127.753Z" fill="black"/>
<path opacity="0.2" d="M463.798 133H434.812V136.071H463.798V133Z" fill="black"/>
<path opacity="0.2" d="M476.935 138.24H444.172V141.311H476.935V138.24Z" fill="black"/>
<path opacity="0.2" d="M474.014 144.549H444.172V147.62H474.014V144.549Z" fill="black"/>
<path opacity="0.2" d="M464.773 149.788H434.812V152.86H464.773V149.788Z" fill="black"/>
<path opacity="0.2" d="M470.648 155.035H434.812V158.107H470.648V155.035Z" fill="black"/>
<path opacity="0.2" d="M463.798 160.276H434.812V163.347H463.798V160.276Z" fill="black"/>
<path opacity="0.2" d="M476.933 165.523H434.812V168.594H476.933V165.523Z" fill="black"/>
<path opacity="0.2" d="M483.497 171.526H447.661V174.598H483.497V171.526Z" fill="black"/>
<path opacity="0.2" d="M476.933 177.536H434.812V180.607H476.933V177.536Z" fill="black"/>
</g>
<path d="M532.903 117.266H493.702V120.337H532.903V117.266Z" fill="#4D61FC"/>
<path d="M523.663 122.513H493.702V125.584H523.663V122.513Z" fill="#4D61FC"/>
<path d="M529.538 127.753H493.702V130.824H529.538V127.753Z" fill="#4D61FC"/>
<path d="M522.688 133H493.702V136.071H522.688V133Z" fill="#4D61FC"/>
<path d="M535.817 138.241H503.054V141.312H535.817V138.241Z" fill="#4D61FC"/>
<path d="M532.896 144.549H503.054V147.62H532.896V144.549Z" fill="#4D61FC"/>
<path d="M523.663 149.79H493.702V152.861H523.663V149.79Z" fill="#4D61FC"/>
<path d="M529.538 155.037H493.702V158.108H529.538V155.037Z" fill="#4D61FC"/>
<path d="M522.688 160.276H493.702V163.347H522.688V160.276Z" fill="#4D61FC"/>
<path d="M535.823 165.523H493.702V168.595H535.823V165.523Z" fill="#4D61FC"/>
<path d="M542.387 171.526H506.551V174.598H542.387V171.526Z" fill="#4D61FC"/>
<path d="M535.823 177.537H493.702V180.608H535.823V177.537Z" fill="#4D61FC"/>
<g opacity="0.2">
<path opacity="0.2" d="M532.903 117.266H493.702V120.337H532.903V117.266Z" fill="white"/>
<path opacity="0.2" d="M523.663 122.513H493.702V125.584H523.663V122.513Z" fill="white"/>
<path opacity="0.2" d="M529.538 127.753H493.702V130.824H529.538V127.753Z" fill="white"/>
<path opacity="0.2" d="M522.688 133H493.702V136.071H522.688V133Z" fill="white"/>
<path opacity="0.2" d="M535.817 138.24H503.054V141.311H535.817V138.24Z" fill="white"/>
<path opacity="0.2" d="M532.896 144.549H503.054V147.62H532.896V144.549Z" fill="white"/>
<path opacity="0.2" d="M523.663 149.788H493.702V152.86H523.663V149.788Z" fill="white"/>
<path opacity="0.2" d="M529.538 155.035H493.702V158.107H529.538V155.035Z" fill="white"/>
<path opacity="0.2" d="M522.688 160.276H493.702V163.347H522.688V160.276Z" fill="white"/>
<path opacity="0.2" d="M535.823 165.523H493.702V168.594H535.823V165.523Z" fill="white"/>
<path opacity="0.2" d="M542.387 171.526H506.551V174.598H542.387V171.526Z" fill="white"/>
<path opacity="0.2" d="M535.823 177.536H493.702V180.607H535.823V177.536Z" fill="white"/>
</g>
<path d="M554.4 108.583H552.615V187.977H554.4V108.583Z" fill="#61656D"/>
<path opacity="0.2" d="M554.4 108.583H552.615V187.977H554.4V108.583Z" fill="black"/>
<path d="M531.818 212.819H468.463V215.804H531.818V212.819Z" fill="#61656D"/>
<path d="M399.036 207.021L403.211 210.955C403.337 211.072 403.428 211.22 403.478 211.384C403.527 211.547 403.533 211.722 403.493 211.888C403.453 212.055 403.37 212.208 403.252 212.331C403.133 212.455 402.984 212.546 402.82 212.593L401.366 213.011C401.091 213.093 400.802 213.117 400.517 213.084C400.232 213.051 399.956 212.961 399.707 212.819L392.804 208.899L399.68 207.055" fill="#C46F69"/>
<path opacity="0.15" d="M399.036 207.021L403.211 210.955C403.337 211.072 403.428 211.22 403.478 211.384C403.527 211.547 403.533 211.722 403.493 211.888C403.453 212.055 403.37 212.208 403.252 212.331C403.133 212.455 402.984 212.546 402.82 212.593L401.366 213.011C401.091 213.093 400.802 213.117 400.517 213.084C400.232 213.051 399.956 212.961 399.707 212.819L392.804 208.899" fill="black"/>
<path d="M389.134 206.034L396.31 204.84C397.284 204.675 398.284 204.878 399.117 205.41L404.845 209.085C404.938 209.145 405.018 209.222 405.08 209.313C405.143 209.405 405.187 209.507 405.209 209.615C405.231 209.723 405.232 209.835 405.21 209.943C405.189 210.052 405.146 210.154 405.084 210.246C404.976 210.404 404.816 210.52 404.632 210.572C404.447 210.624 404.25 210.609 404.075 210.531L398.626 208.17L393.469 209.337C393.376 209.359 393.29 209.403 393.219 209.467C393.148 209.531 393.095 209.612 393.064 209.702C393.041 209.774 393.033 209.85 393.04 209.925C393.047 210 393.07 210.073 393.106 210.138C393.144 210.204 393.193 210.262 393.253 210.308C393.313 210.354 393.382 210.387 393.455 210.405L396.396 211.121C396.856 211.236 397.255 211.519 397.516 211.915C397.775 212.311 397.875 212.79 397.796 213.257C397.777 213.367 397.721 213.466 397.635 213.538C397.55 213.61 397.443 213.649 397.332 213.649H383.698L380.034 204.979L389.134 206.034Z" fill="#C46F69"/>
<path d="M339.12 155.56L336.784 174.724C336.684 175.479 336.345 176.182 335.818 176.732C335.29 177.282 334.601 177.65 333.85 177.782L331.607 178.206L336.339 181.735C338.652 183.482 341.337 184.672 344.185 185.21C347.034 185.749 349.969 185.622 352.76 184.839C353.792 184.554 354.796 184.177 355.761 183.712L361.515 180.966L359.126 180.044C358.469 179.791 357.901 179.351 357.495 178.777C357.089 178.203 356.861 177.522 356.842 176.82L356.471 153.742L339.12 155.56Z" fill="#C46F69"/>
<path d="M355.427 173.643L354.518 173.788C352.975 174.018 351.403 173.941 349.89 173.563C348.378 173.185 346.954 172.512 345.701 171.584C344.449 170.656 343.392 169.489 342.59 168.152C341.789 166.816 341.259 165.334 341.031 163.792L338.588 147.288C338.438 146.248 338.706 145.189 339.334 144.345C339.963 143.501 340.899 142.94 341.94 142.784L357.385 140.456C358.737 140.256 360.113 140.601 361.211 141.415C362.308 142.228 363.038 143.444 363.24 144.794L365.503 160.137C365.94 163.26 365.128 166.43 363.242 168.959C361.355 171.487 358.548 173.17 355.427 173.643Z" fill="#C46F69"/>
<path d="M364.833 156.044C365.717 157.078 366.509 158.187 367.196 159.361C367.859 160.688 365.344 161.026 365.344 161.026L364.833 156.044Z" fill="#C46F69"/>
<g opacity="0.15">
<g opacity="0.15">
<g opacity="0.15">
<path opacity="0.15" d="M336.384 164.323H338.21L336.258 168.164L336.384 164.323Z" fill="black"/>
</g>
</g>
</g>
<path opacity="0.15" d="M352.468 173.794C353.929 173.908 355.399 173.748 356.802 173.323L356.842 176.64L352.468 173.794Z" fill="black"/>
<path d="M360.705 211.386L372.52 234.981L389.89 230.251L377.498 193.529C376.499 190.507 374.835 187.748 372.626 185.456C371.363 184.074 369.824 182.971 368.11 182.217C366.395 181.463 364.543 181.075 362.669 181.078L334.746 180.767H325.307C321.456 180.769 317.763 182.298 315.039 185.019C312.316 187.741 310.786 191.432 310.784 195.28V262.396H367.077L366.99 240.679C366.986 239.832 367.309 239.017 367.893 238.404C370.475 235.71 374.345 232.58 371.995 224.281" fill="#4D61FC"/>
<path d="M438.935 388.178L432.357 383.647V356.271V356.218C432.225 315.297 431.548 290.15 429.755 274.813C428.056 260.293 413.055 272.293 408.854 270.323C406.332 269.142 404.659 264.432 399.628 264.187C390.753 263.749 387.84 257.295 387.84 257.295L383.651 285.573L406.591 286.594C405.96 310.288 415.657 327.913 420.111 352.815C417.669 354.368 415.856 357.286 415.856 361.671C426.656 365.259 425.481 384.994 425.481 384.994L438.935 388.178Z" fill="#C46F69"/>
<path opacity="0.2" d="M406.591 286.576C405.96 310.27 415.651 327.895 420.104 352.795C417.662 354.348 415.85 357.266 415.85 361.651C426.656 365.24 425.481 384.974 425.481 384.974L438.935 388.178L432.357 383.647L432.258 384.125C430.094 381.14 427.293 355.727 426.769 352.795C422.315 327.895 412.584 310.343 413.208 286.649L390.953 285.985L395.26 262.848C390.276 259.658 387.163 257.309 387.163 257.309L383.651 285.574" fill="black"/>
<path d="M438.529 388.549H427.351C426.603 388.549 425.88 388.284 425.311 387.793C424.743 387.309 424.367 386.632 424.252 385.896C423.455 380.39 421.125 367.813 415.849 361.684C415.849 361.684 414.249 355.303 420.103 352.822C420.103 352.822 425.957 356.689 424.086 368.238L427.338 380.722C427.338 380.722 435.257 383.209 439.053 387.448C439.139 387.547 439.195 387.667 439.213 387.793C439.23 387.926 439.21 388.052 439.154 388.171C439.098 388.29 439.009 388.39 438.899 388.456C438.787 388.523 438.659 388.556 438.529 388.549Z" fill="#4D61FC"/>
<path d="M415.849 361.657L414.708 388.549H415.829L418.77 361.657H415.849Z" fill="#4D61FC"/>
<path d="M410.957 388.178L404.379 383.647V356.271V356.218C404.246 315.297 403.576 290.15 401.784 274.814C400.084 260.294 385.077 272.293 380.875 270.323C378.36 269.143 376.687 264.433 371.649 264.188C362.755 263.75 349.128 257.713 349.128 257.713L343.925 285.673L378.612 286.469C377.948 310.17 387.679 327.907 392.133 352.802C389.69 354.354 387.878 357.273 387.878 361.658C398.684 365.24 397.509 384.98 397.509 384.98L410.957 388.178Z" fill="#C46F69"/>
<g opacity="0.2">
<path opacity="0.2" d="M388.537 270.317C390.389 271.186 394.352 269.335 398.341 268.24C395.327 266.602 390.933 268.094 387.17 269.322C387.569 269.725 388.031 270.061 388.537 270.317Z" fill="black"/>
</g>
<path opacity="0.2" d="M404.381 384.125C402.217 381.14 399.31 355.727 398.785 352.796C394.332 327.894 385.663 312.803 386.294 289.116L351.606 288.32L355.94 262.834C350.989 259.637 349.124 257.713 349.124 257.713L343.92 288.326L378.607 289.122C377.944 312.823 387.681 327.907 392.128 352.802C389.685 354.354 387.88 357.273 387.88 361.658C398.679 365.246 397.504 384.98 397.504 384.98L410.959 388.184L404.381 383.654V384.125Z" fill="black"/>
<path d="M410.546 388.549H399.368C398.621 388.549 397.899 388.284 397.331 387.793C396.764 387.309 396.389 386.632 396.275 385.896C395.472 380.39 393.142 367.813 387.872 361.684C387.872 361.684 386.272 355.303 392.127 352.822C392.127 352.822 397.981 356.689 396.109 368.238L399.362 380.722C399.362 380.722 407.28 383.209 411.07 387.448C411.156 387.547 411.212 387.667 411.229 387.793C411.247 387.926 411.227 388.052 411.172 388.171C411.116 388.29 411.027 388.39 410.915 388.456C410.805 388.523 410.676 388.556 410.546 388.549Z" fill="#4D61FC"/>
<path d="M387.871 361.657L386.75 388.549H387.871L390.812 361.657H387.871Z" fill="#4D61FC"/>
<path d="M391.086 347.588C385.915 325.233 377.373 308.783 378.355 285.825L330.99 285.44C327.649 285.413 324.451 284.078 322.084 281.721C319.716 279.365 318.367 276.176 318.326 272.837L318.08 253.859C318.08 253.859 358.151 253.428 367.025 253.859C372.056 254.104 378.309 267.039 380.851 268.22C385.052 270.21 400.053 258.184 401.759 272.711C403.465 287.238 404.142 310.488 404.328 347.588H391.086Z" fill="#21252B"/>
<path d="M431.441 296.81L430.937 267.849C430.872 264.062 429.323 260.452 426.621 257.796C423.92 255.14 420.283 253.65 416.493 253.647L334.712 253.574L335.184 273.428C335.259 276.734 336.617 279.881 338.97 282.206C341.322 284.532 344.487 285.853 347.795 285.892L406.57 286.555C406.059 309.062 413.454 322.375 418.916 346.806H432.29C432.204 326.156 431.966 309.772 431.441 296.81Z" fill="#21252B"/>
<path d="M367.03 253.594C367.03 253.594 358.952 254.934 347.004 259.703C333.636 265.01 319.167 259.843 319.167 259.843V245.714L367.03 253.594Z" fill="#4D61FC"/>
<path opacity="0.3" d="M426.144 346.905C421.498 323.927 412.71 309.161 413.207 286.647L339.252 285.818C334.827 285.747 330.606 283.94 327.502 280.786C324.398 277.633 322.658 273.387 322.659 268.963V253.646H318.291L317.754 268.326C317.754 277.52 321.51 285.851 332.622 285.851L406.577 286.68C406.072 309.187 414.283 323.887 418.922 346.859L432.297 346.938H426.144V346.905Z" fill="black"/>
<path opacity="0.2" d="M366.505 220.473L371.815 233.508C371.3 234.578 370.629 235.566 369.824 236.44L366.505 220.473Z" fill="black"/>
<path d="M350.556 155.242L350.49 154.499L364.767 151.898L364.827 152.641L350.556 155.242Z" fill="white"/>
<path d="M365.105 156.223C365.038 156.201 364.979 156.161 364.933 156.107C364.888 156.054 364.858 155.988 364.847 155.918L363.844 149.152C363.837 149.105 363.839 149.055 363.85 149.007C363.862 148.96 363.883 148.915 363.912 148.876C363.941 148.836 363.978 148.803 364.02 148.778C364.061 148.752 364.108 148.735 364.156 148.728C364.255 148.714 364.355 148.74 364.434 148.8C364.513 148.86 364.566 148.948 364.581 149.046L365.59 155.812C365.603 155.911 365.577 156.01 365.518 156.09C365.458 156.17 365.37 156.222 365.271 156.237C365.216 156.239 365.16 156.235 365.105 156.223Z" fill="white"/>
<path d="M351.982 174.066C345.657 167.095 349.434 154.776 349.434 154.776L350.097 154.485C350.438 155.46 350.641 156.478 350.701 157.509C350.703 157.596 350.721 157.681 350.756 157.759C350.792 157.838 350.843 157.909 350.907 157.966C350.971 158.025 351.046 158.069 351.128 158.097C351.209 158.125 351.295 158.136 351.382 158.129C351.467 158.122 351.551 158.098 351.627 158.057C351.704 158.017 351.771 157.961 351.824 157.894C351.878 157.826 351.918 157.749 351.941 157.665C351.963 157.582 351.968 157.495 351.956 157.41L351.69 153.735C363.711 147.911 363.167 143.122 363.339 139.613C363.525 135.918 352.912 125.729 334.705 132.13C315.416 138.903 319.439 167.692 318.828 174.723C317.852 186.119 301.657 188.573 302.453 205.621C302.746 211.75 309.755 215.79 325.95 215.193C342.146 214.596 351.651 191.313 355.633 185.893C359.051 181.303 364.614 181.303 364.614 181.303C359.45 175.333 355.633 178.113 351.982 174.066Z" fill="black"/>
<path opacity="0.15" d="M349.049 160.713C348.902 160.711 348.757 160.679 348.623 160.62C348.489 160.56 348.368 160.475 348.268 160.367C348.168 160.26 348.09 160.134 348.039 159.996C347.989 159.859 347.966 159.712 347.973 159.566C347.995 159.365 348.068 159.173 348.186 159.009C348.052 159.101 347.939 159.221 347.855 159.361C347.772 159.5 347.719 159.656 347.701 159.818C347.694 159.953 347.715 160.088 347.761 160.214C347.808 160.341 347.88 160.456 347.974 160.554C348.067 160.652 348.179 160.729 348.304 160.782C348.428 160.834 348.562 160.861 348.697 160.859C348.912 160.881 349.127 160.822 349.301 160.694C349.217 160.675 349.129 160.682 349.049 160.713Z" fill="black"/>
<path opacity="0.15" d="M348.366 161.377C348.366 161.377 349.296 161.616 349.614 161.663C349.933 161.709 350.942 161.768 350.942 161.768C350.942 161.768 349.614 163.533 348.34 163.898C348.366 163.898 348.293 162.081 348.366 161.377Z" fill="black"/>
<path opacity="0.3" d="M397.052 347.575C392.406 324.484 383.969 309.156 384.573 286.456L349.879 285.653L354.711 259.936C351.392 258.708 349.122 257.7 349.122 257.7L343.912 285.66L378.599 286.456C377.995 309.156 386.418 324.504 391.078 347.588L397.052 347.575Z" fill="black"/>
<path d="M365.331 164.323C364.415 164.468 363.491 164.547 362.563 164.562C361.236 164.562 364.827 166.021 364.827 166.021L365.331 164.323Z" fill="white"/>
<path d="M405.189 219.584L408.787 218.722C410.784 218.242 412.644 217.309 414.223 215.996L416.168 214.384C416.407 214.189 416.686 214.048 416.985 213.971C417.284 213.892 417.596 213.88 417.9 213.933L424.232 214.954C424.393 214.977 424.556 214.959 424.708 214.902C424.86 214.846 424.996 214.751 425.102 214.629C425.198 214.517 425.266 214.384 425.301 214.241C425.335 214.097 425.336 213.947 425.302 213.803C425.267 213.66 425.199 213.526 425.104 213.414C425.008 213.302 424.887 213.214 424.75 213.157L419.699 211.014L427.153 214.138C427.404 214.247 427.686 214.256 427.944 214.164C428.201 214.071 428.413 213.884 428.537 213.641C428.662 213.397 428.689 213.116 428.613 212.854C428.537 212.592 428.363 212.367 428.129 212.228L422.54 208.858L429.887 213.269C430.075 213.374 430.287 213.424 430.501 213.415C430.715 213.407 430.923 213.341 431.102 213.223C431.257 213.12 431.384 212.981 431.472 212.818C431.562 212.656 431.611 212.474 431.615 212.288C431.619 212.103 431.577 211.919 431.495 211.753C431.413 211.587 431.292 211.443 431.142 211.332L425.434 207.14L433.485 210.53C433.766 210.65 434.082 210.657 434.368 210.551C434.655 210.445 434.89 210.233 435.025 209.959C435.16 209.686 435.183 209.37 435.09 209.08C434.997 208.789 434.795 208.546 434.527 208.401L425.752 203.671C424.861 203.119 423.79 202.934 422.765 203.154L411.296 206.994L405.707 209.648C405.707 209.648 400.039 220.805 405.189 219.584Z" fill="#C46F69"/>
<path opacity="0.15" d="M424.929 213.23C424.941 213.206 424.947 213.181 424.947 213.155C424.948 213.129 424.944 213.103 424.935 213.079C424.925 213.055 424.911 213.033 424.893 213.015C424.875 212.996 424.854 212.981 424.83 212.971L420.183 210.981C420.091 210.921 419.984 210.981 419.925 211.087C419.865 211.193 419.925 211.286 420.024 211.346L424.67 213.336C424.689 213.345 424.71 213.35 424.73 213.35C424.751 213.35 424.771 213.345 424.79 213.336C424.844 213.312 424.892 213.276 424.929 213.23Z" fill="black"/>
<path opacity="0.15" d="M428.273 212.349C428.288 212.327 428.297 212.303 428.301 212.278C428.306 212.252 428.305 212.226 428.298 212.201C428.292 212.176 428.281 212.153 428.265 212.132C428.249 212.112 428.229 212.095 428.207 212.083L422.95 208.919C422.929 208.905 422.904 208.895 422.879 208.891C422.854 208.887 422.828 208.888 422.803 208.894C422.778 208.9 422.754 208.911 422.734 208.927C422.714 208.943 422.697 208.963 422.685 208.986C422.67 209.007 422.66 209.031 422.655 209.057C422.651 209.082 422.651 209.109 422.657 209.134C422.662 209.159 422.673 209.184 422.688 209.204C422.703 209.226 422.722 209.244 422.744 209.257L428.001 212.415C428.001 212.455 428.087 212.415 428.127 212.415C428.167 212.415 428.247 212.395 428.273 212.349Z" fill="black"/>
<path opacity="0.15" d="M417.091 213.469L416.129 214.391C416.368 214.196 416.646 214.055 416.946 213.977C417.244 213.9 417.556 213.887 417.861 213.94L424.193 214.962C424.353 214.983 424.516 214.965 424.667 214.906C424.818 214.849 424.952 214.753 425.056 214.63C425.175 214.485 425.25 214.309 425.271 214.124C425.292 213.937 425.259 213.749 425.176 213.582C425.176 213.582 425.063 214.464 423.848 214.106C422.979 213.867 420.529 213.27 419.029 212.925C418.686 212.856 418.331 212.869 417.994 212.964C417.657 213.058 417.348 213.232 417.091 213.469Z" fill="black"/>
<path opacity="0.15" d="M416.514 214.132L414.177 215.996C412.6 217.316 410.736 218.25 408.734 218.723L408.197 218.855L409.69 209.005L410.241 214.57C410.274 214.786 410.35 214.992 410.465 215.177C410.58 215.362 410.732 215.521 410.911 215.646C411.09 215.77 411.293 215.856 411.506 215.9C411.719 215.943 411.94 215.942 412.153 215.897C413.671 215.481 415.134 214.889 416.514 214.132Z" fill="black"/>
<path d="M362.577 213.535L369.62 235.631C370.538 237.208 371.856 238.516 373.441 239.423C375.025 240.33 376.821 240.804 378.647 240.798C381.607 240.798 414.881 218.835 416.991 216.301V216.5L411.263 206.776L383.797 220.281L379.151 200.381L362.577 213.535Z" fill="#4D61FC"/>
<path opacity="0.2" d="M385.655 218.982L385.722 220.309C385.725 220.509 385.788 220.703 385.903 220.867C386.018 221.032 386.18 221.157 386.367 221.229C386.554 221.3 386.758 221.314 386.953 221.268C387.148 221.222 387.325 221.119 387.461 220.972L390.441 216.952L385.655 218.982Z" fill="black"/>
<path opacity="0.2" d="M369.62 235.631C370.539 237.208 371.856 238.515 373.441 239.423C375.025 240.329 376.821 240.804 378.647 240.798C381.607 240.798 414.881 218.835 416.991 216.301V216.5L415.478 213.933L382.656 234.231C373.503 239.379 361.9 213.005 361.9 213.005L367.031 227.532L369.62 235.631Z" fill="black"/>
<path opacity="0.2" d="M369.912 236.281L369.201 235.538C366.546 237.528 361.9 238.191 361.9 238.191L361.522 254.848L367.044 253.926L366.991 240.659C366.987 239.813 367.31 238.997 367.894 238.384C368.524 237.747 369.235 237.057 369.912 236.281Z" fill="black"/>
<path d="M350.535 161.723C350.535 161.723 345.411 161.929 344.515 156.867C343.619 151.806 349.924 151.063 350.621 156.204L350.96 161.776L350.535 161.723Z" fill="#C46F69"/>
<path opacity="0.15" d="M345.679 154.85C345.824 154.655 346.013 154.497 346.23 154.387C346.447 154.278 346.686 154.221 346.93 154.221C347.173 154.221 347.413 154.278 347.63 154.387C347.847 154.497 348.036 154.655 348.181 154.85C348.591 155.297 348.876 155.843 349.011 156.435L349.177 156.972C349.184 157.043 349.165 157.114 349.124 157.172C349.083 157.23 349.022 157.271 348.953 157.287C348.884 157.304 348.811 157.294 348.748 157.261C348.686 157.227 348.637 157.172 348.613 157.105L348.447 156.574C348.329 156.088 348.102 155.634 347.783 155.248C347.683 155.124 347.559 155.021 347.419 154.946C347.278 154.872 347.124 154.825 346.967 154.81C346.804 154.825 346.646 154.873 346.503 154.95C346.359 155.028 346.232 155.134 346.13 155.261C346.076 155.311 346.005 155.338 345.931 155.337C345.857 155.336 345.787 155.309 345.733 155.258C345.68 155.208 345.647 155.139 345.642 155.066C345.637 154.993 345.659 154.921 345.705 154.863L345.679 154.85Z" fill="black"/>
<path d="M347.71 159.686C347.734 159.488 347.817 159.303 347.948 159.153C348.078 159.002 348.25 158.893 348.443 158.84C348.635 158.788 348.838 158.792 349.027 158.855C349.216 158.917 349.383 159.035 349.505 159.191C349.628 159.348 349.701 159.537 349.716 159.736C349.732 159.935 349.688 160.133 349.59 160.306C349.493 160.48 349.345 160.621 349.168 160.711C348.99 160.801 348.791 160.837 348.593 160.814C348.326 160.78 348.084 160.643 347.918 160.432C347.753 160.221 347.678 159.953 347.71 159.686Z" fill="#4D61FC"/>
<path d="M281.46 388.092L298.452 299.252C298.784 297.023 297.728 295.604 299.985 295.604H337.281C338.425 295.644 339.523 296.073 340.391 296.819C341.26 297.565 341.848 298.585 342.06 299.71L355.096 388.596H359.888L347.589 299.232C347.025 295.438 342.053 292.353 338.217 292.353H299.056C297.138 292.408 295.299 293.123 293.848 294.376C292.397 295.629 291.423 297.344 291.091 299.232L273.614 388.118L281.46 388.092Z" fill="#868A91"/>
<g opacity="0.5">
<g opacity="0.5">
<g opacity="0.5">
<path opacity="0.5" d="M293.813 294.388H302.441V295.589H299.986C297.808 295.589 298.718 296.916 298.486 299.018H291.118C291.47 297.216 292.419 295.585 293.813 294.388Z" fill="black"/>
</g>
</g>
</g>
<path d="M281.461 388.092H278.541L295.898 298.27C296.253 296.707 297.116 295.304 298.353 294.284C299.59 293.262 301.131 292.679 302.734 292.625H342.811C344.41 292.669 345.945 293.264 347.154 294.31C348.364 295.356 349.175 296.788 349.449 298.363L362.724 388.576H359.883L346.807 298.754C346.633 297.814 346.144 296.963 345.42 296.339C344.696 295.715 343.78 295.358 342.825 295.325H302.767C301.788 295.366 300.85 295.725 300.094 296.348C299.338 296.97 298.806 297.822 298.579 298.774L281.461 388.092Z" fill="#868A91"/>
<g opacity="0.5">
<g opacity="0.5">
<path opacity="0.5" d="M281.461 388.092H278.541L295.898 298.27C296.253 296.707 297.116 295.304 298.353 294.284C299.59 293.262 301.131 292.679 302.734 292.625H342.811C344.41 292.669 345.945 293.264 347.154 294.31C348.364 295.356 349.175 296.788 349.449 298.363L362.724 388.576H359.883L346.807 298.754C346.633 297.814 346.144 296.963 345.42 296.339C344.696 295.715 343.78 295.358 342.825 295.325H302.767C301.788 295.366 300.85 295.725 300.094 296.348C299.338 296.97 298.806 297.822 298.579 298.774L281.461 388.092Z" fill="black"/>
</g>
</g>
<path d="M286.425 295.205C279.044 294.714 284.779 278.164 283.671 271.537L283.451 270.211L286.106 269.766L286.326 271.093C287.965 280.923 283.06 292.505 286.412 292.505C287.978 292.505 290.254 292.432 293.407 292.333C301.678 292.067 315.517 291.623 340.434 291.623H341.761V294.323H340.434C315.557 294.323 301.744 294.76 293.494 295.026C290.321 295.132 288.031 295.205 286.425 295.205Z" fill="#868A91"/>
<path d="M343.382 294.322H289.014C284.699 294.322 284.766 290.7 285.915 284.319C286.782 279.949 286.901 275.463 286.266 271.052L288.921 270.608C290.521 280.233 285.602 291.596 289.007 291.596H343.376V294.302L343.382 294.322Z" fill="#61656D"/>
<path d="M409.492 297.247C405.135 299.81 400.176 301.169 395.122 301.188H323.304C307.314 301.188 290.169 300.027 287.614 293.546C285.059 287.065 397.385 289.407 397.385 289.407C397.385 289.407 406.239 290.992 407.169 291.689C408.098 292.385 409.492 297.247 409.492 297.247Z" fill="#61656D"/>
<path d="M287.625 269.46L278.087 199.883C277.908 198.676 271.921 198.172 272.153 197.097C273.016 193.237 276.7 187.147 286.351 187.147H335.004C337.815 187.226 340.512 188.272 342.641 190.107C344.771 191.943 346.201 194.456 346.692 197.223C346.692 197.223 357.053 265.673 356.649 267.178C356.244 268.684 354.87 271.822 352.328 271.822C349.785 271.822 288.03 272.279 288.03 272.279L287.625 269.46Z" fill="#868A91"/>
<path d="M348.332 294.926H291.018C289.727 294.926 288.49 294.414 287.577 293.502C286.665 292.59 286.152 291.354 286.152 290.063C286.152 288.774 286.665 287.537 287.577 286.625C288.49 285.714 289.727 285.201 291.018 285.201H348.332C349.623 285.201 350.861 285.714 351.773 286.625C352.685 287.537 353.198 288.774 353.198 290.063C353.198 291.354 352.685 292.59 351.773 293.502C350.861 294.414 349.623 294.926 348.332 294.926Z" fill="#868A91"/>
<path d="M413.202 302.27C412.225 302.261 411.284 301.899 410.552 301.252C409.821 300.605 409.348 299.716 409.22 298.748C409.133 298.363 407.998 294.104 398.6 294.104H348.998C347.951 294.118 346.939 293.736 346.163 293.034C345.388 292.333 344.906 291.365 344.816 290.323C344.777 289.77 344.854 289.214 345.04 288.69C345.225 288.168 345.517 287.688 345.897 287.283C346.276 286.877 346.734 286.554 347.243 286.333C347.753 286.112 348.303 285.998 348.858 285.999H398.639C413.587 285.999 417.224 294.96 417.297 298.091C417.327 299.145 416.944 300.169 416.23 300.945C415.516 301.722 414.528 302.19 413.474 302.25L413.202 302.27ZM409.147 298.21C409.145 298.388 409.158 298.565 409.186 298.741C409.186 298.668 409.186 298.595 409.186 298.522C409.186 298.449 409.147 298.31 409.147 298.21Z" fill="#868A91"/>
<path opacity="0.1" d="M413.202 302.27C412.225 302.261 411.284 301.899 410.552 301.252C409.821 300.605 409.348 299.716 409.22 298.748C409.133 298.363 407.998 294.104 398.6 294.104H348.998C347.951 294.118 346.939 293.736 346.163 293.034C345.388 292.333 344.906 291.365 344.816 290.323C344.777 289.77 344.854 289.214 345.04 288.69C345.225 288.168 345.517 287.688 345.897 287.283C346.276 286.877 346.734 286.554 347.243 286.333C347.753 286.112 348.303 285.998 348.858 285.999H398.639C413.587 285.999 417.224 294.96 417.297 298.091C417.327 299.145 416.944 300.169 416.23 300.945C415.516 301.722 414.528 302.19 413.474 302.25L413.202 302.27ZM409.147 298.21C409.145 298.388 409.158 298.565 409.186 298.741C409.186 298.668 409.186 298.595 409.186 298.522C409.186 298.449 409.147 298.31 409.147 298.21Z" fill="white"/>
<path d="M405.275 294.323H351.332C350.909 294.315 350.493 294.222 350.107 294.049C349.722 293.876 349.375 293.628 349.087 293.319C348.8 293.009 348.578 292.645 348.434 292.248C348.291 291.851 348.229 291.429 348.252 291.007C348.319 285.183 350.416 282.131 348.518 270.755L347.754 270.185L350.907 269.74L351.126 271.067C353.011 282.377 348.345 291.63 351.319 291.63H405.275V294.323Z" fill="#868A91"/>
<path d="M406.863 294.761H353.259C346.621 294.761 352.761 283.067 350.445 271.127L353.173 270.629C354.812 280.473 350.816 292.061 354.155 292.061H406.863V294.761Z" fill="#61656D"/>
<path d="M419.122 388.092L406.113 295.656C405.95 294.715 405.469 293.859 404.75 293.231C404.031 292.603 403.118 292.241 402.163 292.207H362.086C361.131 292.236 360.214 292.592 359.49 293.215C358.765 293.838 358.276 294.689 358.104 295.629L345.127 388.065H342.227L355.435 295.251C355.701 293.672 356.51 292.235 357.721 291.187C358.932 290.138 360.47 289.545 362.073 289.507H402.163C403.765 289.545 405.303 290.138 406.515 291.187C407.726 292.235 408.534 293.672 408.801 295.251L422.009 388.092H419.122Z" fill="#868A91"/>
<path d="M345.087 388.602L357.771 296.187C358.103 293.951 357.048 291.716 359.304 291.716L396.6 292.532C397.745 292.574 398.843 293.003 399.711 293.751C400.58 294.499 401.168 295.519 401.379 296.644L414.349 388.112H419.115L406.902 296.167C406.338 292.373 401.227 289.427 397.384 289.427L358.375 289.288C356.458 289.344 354.62 290.059 353.169 291.312C351.718 292.565 350.743 294.28 350.41 296.167L337.274 388.622L345.087 388.602Z" fill="#868A91"/>
<g opacity="0.5">
<g opacity="0.5">
<path opacity="0.5" d="M419.121 388.092L406.112 295.656C405.949 294.715 405.468 293.859 404.749 293.231C404.03 292.603 403.117 292.241 402.163 292.207H362.085C361.13 292.236 360.214 292.592 359.489 293.215C358.765 293.838 358.275 294.689 358.103 295.629L345.054 388.576H342.146L355.421 295.251C355.687 293.672 356.496 292.235 357.707 291.187C358.918 290.138 360.457 289.545 362.059 289.507H402.129C403.731 289.545 405.27 290.138 406.481 291.187C407.692 292.235 408.5 293.672 408.767 295.251L422.009 388.092H419.121Z" fill="black"/>
</g>
</g>
<path d="M284.501 269.454L274.963 199.883C274.784 198.676 270.642 198.172 270.881 197.097C271.744 193.237 279.277 189.801 283.658 189.801H332.311C335.123 189.879 337.822 190.925 339.952 192.762C342.081 194.599 343.511 197.114 344 199.883L353.385 271.589L350.604 272.253H284.926L284.501 269.454Z" fill="#61656D"/>
<path d="M283.664 189.801H332.317C334.197 189.847 336.04 190.329 337.703 191.208C339.365 192.087 340.8 193.341 341.895 194.868C341.651 194.787 341.437 194.638 341.277 194.437C339.89 192.892 338.622 196.129 338.622 197.369C338.622 198.344 294.848 202.503 275.566 204.122L274.942 199.883C274.763 198.676 270.621 198.172 270.86 197.097C271.743 193.237 279.303 189.801 283.664 189.801Z" fill="#61656D"/>
<path d="M279.243 272.24L269.705 202.657C269.476 201.4 269.532 200.109 269.868 198.877C270.203 197.645 270.81 196.504 271.645 195.538C272.48 194.571 273.52 193.802 274.689 193.29C275.86 192.777 277.129 192.532 278.406 192.574H329.382C332.194 192.653 334.893 193.7 337.022 195.536C339.152 197.373 340.582 199.888 341.071 202.657L350.609 272.227C350.609 272.227 335.469 276.088 311.375 276.088C287.281 276.088 279.243 272.24 279.243 272.24Z" fill="#868A91"/>
<g opacity="0.5">
<g opacity="0.5">
<g opacity="0.5">
<path opacity="0.5" d="M350.741 294.76H288.349L289.305 295.762H350.496L350.741 294.76Z" fill="black"/>
</g>
</g>
</g>
</svg>
